<svg width="121" height="120" viewBox="0 0 121 120" fill="none" xmlns="http://www.w3.org/2000/svg">
    <g opacity="0.2">
        <mask id="path-1-inside-1" fill="white">
            <path d="M120.58 60C120.58 52.1207 119.025 44.3185 116.003 37.039C112.981 29.7595 108.552 23.1451 102.969 17.5736C97.3853 12.0021 90.7567 7.58251 83.4616 4.56723C76.1664 1.55195 68.3475 -3.44416e-07 60.4513 0L60.4513 60H120.58Z"/>
        </mask>
        <path d="M120.58 60C120.58 52.1207 119.025 44.3185 116.003 37.039C112.981 29.7595 108.552 23.1451 102.969 17.5736C97.3853 12.0021 90.7567 7.58251 83.4616 4.56723C76.1664 1.55195 68.3475 -3.44416e-07 60.4513 0L60.4513 60H120.58Z" stroke="#E33100" stroke-width="2" mask="url(#path-1-inside-1)"/>
    </g>
    <g opacity="0.2">
        <mask id="path-2-inside-2" fill="white">
            <path d="M0.322456 60C0.322456 67.8793 1.87773 75.6815 4.89949 82.961C7.92125 90.2405 12.3503 96.8549 17.9338 102.426C23.5173 107.998 30.1458 112.417 37.441 115.433C44.7361 118.448 52.555 120 60.4513 120L60.4513 60L0.322456 60Z"/>
        </mask>
        <path d="M0.322456 60C0.322456 67.8793 1.87773 75.6815 4.89949 82.961C7.92125 90.2405 12.3503 96.8549 17.9338 102.426C23.5173 107.998 30.1458 112.417 37.441 115.433C44.7361 118.448 52.555 120 60.4513 120L60.4513 60L0.322456 60Z" stroke="#E33100" stroke-width="2" mask="url(#path-2-inside-2)"/>
    </g>
    <path d="M60.4513 0C52.555 0 44.7361 1.55195 37.441 4.56723C30.1458 7.58251 23.5172 12.0021 17.9338 17.5736C12.3503 23.1451 7.92124 29.7595 4.89948 37.039C1.87773 44.3185 0.322448 52.1207 0.322449 60L60.4513 60L60.4513 0Z" fill="#E33100"/>
    <path d="M60.4513 120C68.3475 120 76.1664 118.448 83.4616 115.433C90.7567 112.417 97.3853 107.998 102.969 102.426C108.552 96.8549 112.981 90.2405 116.003 82.961C119.025 75.6815 120.58 67.8793 120.58 60L60.4513 60L60.4513 120Z" fill="#E33100"/>
    <ellipse cx="61.4534" cy="60" rx="50.1073" ry="50" fill="white"/>
</svg>