<svg width="70" height="70" viewBox="0 0 70 70" fill="none" xmlns="http://www.w3.org/2000/svg">
    <g opacity="0.9">
        <path d="M32.169 47.4778C32.7025 46.9432 32.7025 46.078 32.169 45.5434C31.635 45.0104 30.7698 45.0104 30.2352 45.5434C29.7022 46.078 29.7022 46.9432 30.2352 47.4778C30.7698 48.0108 31.635 48.0108 32.169 47.4778Z" fill="#E33100"/>
        <path d="M43.0512 7.97345H38.4045C37.9253 7.97345 37.5369 8.36192 37.5369 8.84109V15.4081H36.5459C36.0667 15.4081 35.6782 15.7966 35.6782 16.2758C35.6782 16.7549 36.0667 17.1434 36.5459 17.1434H37.5369V19.1255H36.5459C36.0667 19.1255 35.6782 19.514 35.6782 19.9931C35.6782 20.4723 36.0667 20.8608 36.5459 20.8608H37.5369V22.7811C37.5369 23.2603 37.9253 23.6488 38.4045 23.6488C38.8837 23.6488 39.2722 23.2603 39.2722 22.7811V20.8608H43.0512C43.5304 20.8608 43.9189 20.4723 43.9189 19.9931C43.9189 19.514 43.5304 19.1255 43.0512 19.1255H39.2722V17.1434H43.0512C45.5794 17.1434 47.6362 15.0866 47.6362 12.5584C47.6362 9.96774 45.5259 7.97345 43.0512 7.97345ZM43.0512 15.4081H39.2722V9.70873H43.0512C44.6131 9.70873 45.901 10.9685 45.901 12.5585C45.9009 14.1298 44.6226 15.4081 43.0512 15.4081Z" fill="#E33100"/>
        <path d="M25.6963 15.0348C25.6963 23.325 32.4409 30.0702 40.7311 30.0702C49.0213 30.0702 55.7659 23.325 55.7659 15.0348C55.7659 6.74462 49.0213 0 40.7311 0C32.4409 0 25.6963 6.74462 25.6963 15.0348ZM53.0326 15.0348C53.0326 21.8179 47.5142 27.3363 40.7311 27.3363C33.948 27.3363 28.4296 21.8179 28.4296 15.0348C28.4296 8.25227 33.948 2.73385 40.7311 2.73385C47.5142 2.73385 53.0326 8.25227 53.0326 15.0348Z" fill="#E33100"/>
        <path d="M15.7434 69.5958C16.2732 70.1299 17.1357 70.1358 17.6724 69.6071L24.299 63.0787C25.4248 61.9529 25.7671 60.2861 25.272 58.8372L26.6974 57.4626C27.4649 56.7213 28.4753 56.3127 29.5434 56.3127H47.7137C50.9373 56.3127 53.9841 55.0748 56.2939 52.8269C56.389 52.7345 55.5724 53.6964 68.6899 38.0186C70.6355 35.7168 70.3444 32.2603 68.0405 30.3126C65.751 28.3831 62.3213 28.6603 60.3704 30.9225L52.305 39.2122C51.2866 37.9587 49.7335 37.1774 48.0555 37.1774H32.814C30.6452 36.2701 28.3439 35.8108 25.9695 35.8108C19.3878 35.8108 13.6408 38.8506 10.5566 44.5501C9.25724 44.3039 7.88684 44.697 6.90097 45.6828L0.398809 52.2042C-0.132045 52.7367 -0.133113 53.5981 0.396673 54.1322L15.7434 69.5958ZM25.969 38.5441C28.0625 38.5441 30.0866 38.9654 31.9862 39.7964C32.1593 39.8723 32.3456 39.9113 32.5342 39.9113H48.0555C49.5375 39.9113 50.7894 41.1198 50.7894 42.6446C50.7894 44.1522 49.5632 45.3784 48.0555 45.3784H36.9038C36.1492 45.3784 35.5372 45.9904 35.5372 46.7451C35.5372 47.5002 36.1492 48.1117 36.9038 48.1117H48.0555C51.0703 48.1117 53.5227 45.6593 53.5227 42.6446C53.5227 42.4042 53.5056 42.1661 53.4746 41.93C61.2767 33.91 62.3768 32.7832 62.4238 32.7271C63.3979 31.5773 65.1272 31.4315 66.2776 32.4013C67.429 33.3749 67.5748 35.1031 66.598 36.2594L54.3387 50.915C52.5485 52.6336 50.1982 53.5794 47.7137 53.5794H29.5434C27.7629 53.5794 26.0774 54.2603 24.7989 55.4956L23.6373 56.6166L12.9294 45.9093C15.432 41.2144 20.128 38.5441 25.969 38.5441ZM8.83533 47.6145C9.28607 47.1638 9.97821 47.0826 10.5278 47.4223C10.7643 47.5665 10.085 46.948 22.3662 59.2121C22.9126 59.7585 22.8832 60.629 22.3737 61.1385L16.7244 66.7039L3.29447 53.1714L8.83533 47.6145Z" fill="#E33100"/>
    </g>
</svg>
