<svg width="180" height="46" viewBox="0 0 180 46" fill="none" xmlns="http://www.w3.org/2000/svg">
    <path fill-rule="evenodd" clip-rule="evenodd" d="M167.266 40.7062C167.262 40.9025 167.302 41.0972 167.383 41.2762C167.464 41.4552 167.583 41.614 167.733 41.7412C168.049 42.0213 168.46 42.1706 168.882 42.1587C169.289 42.1623 169.682 42.0117 169.982 41.7372C170.129 41.6189 170.248 41.4696 170.33 41.3C170.412 41.1305 170.455 40.9449 170.457 40.7566C170.459 40.5603 170.418 40.366 170.337 40.1872C170.256 40.0085 170.137 39.8496 169.988 39.7215C169.685 39.4397 169.285 39.2866 168.871 39.2948C168.454 39.2847 168.049 39.4303 167.734 39.703C167.586 39.8245 167.468 39.9775 167.387 40.1509C167.306 40.3243 167.264 40.5136 167.266 40.7049V40.7062ZM170.574 38.4202H171.681V42.3667C171.701 42.7223 171.646 43.078 171.519 43.4107C171.392 43.7433 171.196 44.0456 170.944 44.2976C170.389 44.7892 169.661 45.0413 168.92 44.9987C168.357 45.0201 167.799 44.8823 167.31 44.6011C166.868 44.321 166.533 43.9011 166.358 43.4083H167.551C167.683 43.6248 167.874 43.7987 168.102 43.9093C168.349 44.0306 168.622 44.0923 168.898 44.0895C169.339 44.1087 169.77 43.9551 170.099 43.6615C170.253 43.5177 170.374 43.3424 170.454 43.1475C170.533 42.9526 170.57 42.7427 170.561 42.5324V42.478C170.324 42.6974 170.047 42.8677 169.744 42.979C169.421 43.0946 169.081 43.152 168.738 43.1486C168.395 43.1508 168.054 43.0957 167.729 42.9856C167.421 42.882 167.135 42.7225 166.886 42.5152C166.624 42.2973 166.411 42.0262 166.262 41.72C166.115 41.4272 166.037 41.1042 166.035 40.7764C166.026 40.443 166.09 40.1116 166.222 39.8052C166.354 39.4988 166.551 39.2248 166.799 39.0019C167.332 38.5283 168.027 38.2786 168.74 38.3049C169.076 38.3007 169.41 38.3573 169.727 38.4718C170.038 38.5899 170.324 38.7652 170.57 38.9887L170.574 38.4202ZM157.23 38.4202V38.9582C157.398 38.7542 157.609 38.5911 157.849 38.4811C158.101 38.3747 158.372 38.3223 158.645 38.3274C158.99 38.3195 159.332 38.3855 159.649 38.5209C159.934 38.6476 160.18 38.8474 160.361 39.1C160.486 39.2772 160.576 39.4764 160.627 39.6871C160.689 40.0034 160.715 40.3257 160.706 40.6479V43.1486H159.468V41.056C159.507 40.6074 159.422 40.1564 159.221 39.7533C159.12 39.6283 158.989 39.5306 158.84 39.469C158.691 39.4074 158.529 39.384 158.369 39.4008C158.2 39.3853 158.03 39.4129 157.875 39.4811C157.719 39.5492 157.584 39.6557 157.481 39.7905C157.267 40.2016 157.175 40.6649 157.215 41.1263V43.15H156.022V38.4202H157.23ZM149.13 43.15V38.4202H150.339V43.15H149.13ZM150.339 37.9391H149.13V36.8908H150.339V37.9391ZM142.308 38.7992V36.8895H143.525V43.1486H142.308V42.7617C142.071 42.9295 141.81 43.0596 141.533 43.1473C141.249 43.2352 140.952 43.2799 140.654 43.2798C140.332 43.2823 140.012 43.2345 139.706 43.138C139.419 43.0472 139.149 42.9073 138.91 42.7245C138.6 42.4928 138.347 42.1943 138.169 41.8512C137.995 41.5204 137.904 41.1526 137.903 40.7791C137.903 40.4292 137.986 40.0842 138.143 39.7719C138.304 39.4483 138.534 39.1638 138.817 38.9383C139.063 38.7324 139.346 38.5746 139.65 38.4731C139.972 38.3655 140.31 38.3118 140.65 38.3141C140.957 38.3096 141.263 38.3498 141.559 38.4334C141.828 38.5125 142.081 38.6372 142.308 38.8018V38.7992ZM142.255 40.8056C142.259 40.6161 142.222 40.4278 142.148 40.2536C142.073 40.0794 141.962 39.9233 141.821 39.7958C141.527 39.5273 141.139 39.3846 140.74 39.3982C140.337 39.3899 139.947 39.5375 139.65 39.8103C139.507 39.932 139.393 40.0832 139.315 40.2535C139.236 40.4237 139.196 40.609 139.196 40.7963C139.193 40.9856 139.233 41.1731 139.311 41.3453C139.39 41.5175 139.506 41.6699 139.651 41.7915C139.971 42.0621 140.38 42.2039 140.799 42.1891C141.181 42.1979 141.552 42.0549 141.829 41.7915C141.967 41.6678 142.076 41.5159 142.149 41.3462C142.223 41.1766 142.259 40.9931 142.255 40.8083V40.8056ZM131.289 43.1486V36.8895H132.496V43.1486H131.289ZM120.358 40.7632C120.356 40.4362 120.426 40.1129 120.562 39.8156C120.703 39.5115 120.907 39.2406 121.16 39.0205C121.696 38.5425 122.389 38.2788 123.107 38.2797C123.468 38.2764 123.827 38.3342 124.168 38.4506C124.495 38.5646 124.797 38.7371 125.062 38.9595C125.331 39.186 125.55 39.4664 125.704 39.7825C125.853 40.0795 125.931 40.4071 125.932 40.7393C125.939 41.0786 125.871 41.4151 125.734 41.7254C125.596 42.0356 125.392 42.312 125.136 42.535C124.874 42.7769 124.567 42.9651 124.232 43.089C123.878 43.2154 123.504 43.2783 123.128 43.2745C122.755 43.2793 122.385 43.2151 122.035 43.085C121.702 42.9556 121.396 42.7625 121.136 42.5165C120.889 42.2862 120.69 42.0098 120.55 41.7028C120.421 41.4075 120.356 41.0881 120.359 40.7658L120.358 40.7632ZM121.632 40.7539C121.623 40.9467 121.654 41.1394 121.724 41.3193C121.794 41.4993 121.901 41.6625 122.038 41.7982C122.341 42.0657 122.737 42.2038 123.14 42.1825C123.34 42.1919 123.54 42.1616 123.728 42.0934C123.917 42.0251 124.09 41.9203 124.237 41.785C124.376 41.6465 124.484 41.4807 124.554 41.2981C124.625 41.1155 124.656 40.9202 124.647 40.7247C124.652 40.5397 124.617 40.3558 124.543 40.1861C124.469 40.0163 124.359 39.8649 124.22 39.7427C123.923 39.4821 123.537 39.3446 123.142 39.3584C122.742 39.3411 122.352 39.4804 122.054 39.7467C121.915 39.8742 121.805 40.0304 121.732 40.2046C121.659 40.3787 121.624 40.5666 121.631 40.7552L121.632 40.7539ZM111.552 36.8895V38.9569C111.72 38.7524 111.932 38.5891 112.173 38.4798C112.425 38.3734 112.696 38.321 112.969 38.326C113.247 38.3077 113.527 38.3466 113.79 38.4403C114.053 38.5339 114.294 38.6805 114.498 38.8707C114.686 39.0837 114.829 39.3316 114.92 39.6003C115.011 39.8689 115.048 40.1529 115.029 40.4359V43.1486H113.79V41.064C113.832 40.6105 113.748 40.1542 113.547 39.7454C113.444 39.6216 113.313 39.5251 113.164 39.4645C113.015 39.4039 112.853 39.3811 112.693 39.3982C112.524 39.3824 112.354 39.4099 112.198 39.4781C112.043 39.5462 111.907 39.6528 111.804 39.7878C111.59 40.1987 111.498 40.6622 111.539 41.1236V43.1473H110.345V36.8882L111.552 36.8895ZM86.3182 41.1303C86.3337 41.2891 86.3824 41.443 86.4613 41.5818C86.5401 41.7206 86.6472 41.8413 86.7758 41.936C87.0736 42.1438 87.4315 42.2476 87.7943 42.2315C88.0511 42.2354 88.3055 42.1829 88.5397 42.0778C88.752 41.9825 88.9351 41.8325 89.0703 41.6431H90.4045C90.1967 42.1373 89.8433 42.5566 89.3912 42.8451C88.924 43.1351 88.3827 43.2833 87.8328 43.2719C87.4595 43.2761 87.0884 43.2133 86.7373 43.0863C86.4053 42.9616 86.1007 42.7735 85.8407 42.5324C85.5935 42.3058 85.3946 42.0318 85.2558 41.7266C85.1197 41.4325 85.0487 41.1124 85.0476 40.7884C85.046 40.4692 85.1111 40.1533 85.2386 39.8607C85.3698 39.5632 85.5613 39.2961 85.8009 39.0761C86.067 38.8233 86.379 38.6236 86.72 38.4877C87.0566 38.3494 87.4172 38.2787 87.7811 38.2797C88.2265 38.2762 88.6672 38.3713 89.0716 38.5579C89.4658 38.7409 89.8139 39.0099 90.0902 39.3452C90.2601 39.5462 90.3889 39.7785 90.4695 40.029C90.557 40.3099 90.5991 40.6029 90.5942 40.897C90.5942 40.9222 90.5942 40.9607 90.5942 41.0137C90.5942 41.0667 90.5942 41.1064 90.5942 41.1342L86.3182 41.1303ZM89.2533 40.2569C89.1639 39.9636 88.9767 39.7096 88.7228 39.5373C88.4399 39.3633 88.1116 39.2775 87.7798 39.2908C87.4641 39.2853 87.1545 39.378 86.8938 39.5559C86.6404 39.7199 86.4527 39.9675 86.3633 40.2556L89.2533 40.2569ZM75.3086 40.7009C75.3048 40.8972 75.3447 41.0919 75.4255 41.2709C75.5062 41.4499 75.6258 41.6087 75.7755 41.7359C76.0911 42.0161 76.5019 42.1654 76.924 42.1534C77.3307 42.157 77.7237 42.0064 78.0235 41.7319C78.1705 41.6138 78.2894 41.4646 78.3717 41.295C78.4541 41.1254 78.4978 40.9397 78.4996 40.7512C78.5014 40.555 78.4604 40.3607 78.3793 40.1819C78.2982 40.0032 78.179 39.8443 78.0301 39.7162C77.7275 39.4344 77.327 39.2813 76.9134 39.2895C76.4969 39.2794 76.0916 39.425 75.7768 39.6977C75.6272 39.8194 75.507 39.9733 75.4252 40.148C75.3435 40.3226 75.3022 40.5134 75.3046 40.7062L75.3086 40.7009ZM78.6164 38.4162H79.7238V42.3627C79.7433 42.7184 79.6876 43.0742 79.5603 43.4069C79.4331 43.7395 79.237 44.0417 78.9851 44.2936C78.4295 44.7851 77.702 45.0371 76.9611 44.9947C76.3973 45.0161 75.8388 44.8783 75.3497 44.5971C74.9084 44.3167 74.5737 43.8968 74.3988 43.4044H75.5924C75.7246 43.6206 75.9161 43.7945 76.1441 43.9053C76.3917 44.0267 76.6642 44.0885 76.9399 44.0856C77.381 44.105 77.8122 43.9514 78.1416 43.6575C78.2955 43.5138 78.4165 43.3384 78.4962 43.1435C78.5759 42.9486 78.6123 42.7387 78.6031 42.5284V42.478C78.367 42.6979 78.0892 42.8682 77.7861 42.979C77.4637 43.0947 77.1233 43.1521 76.7808 43.1486C76.438 43.1508 76.0973 43.0957 75.7728 42.9856C75.465 42.882 75.1791 42.7225 74.9293 42.5152C74.6668 42.2979 74.4542 42.0267 74.3059 41.72C74.1579 41.4273 74.0798 41.1043 74.0778 40.7764C74.0687 40.443 74.1323 40.1116 74.2642 39.8051C74.3961 39.4987 74.5932 39.2246 74.8417 39.0019C75.3739 38.5284 76.0686 38.2786 76.7808 38.3049C77.1179 38.3007 77.4531 38.3573 77.7702 38.4718C78.0804 38.5907 78.366 38.7659 78.6124 38.9887L78.6164 38.4162ZM67.5471 43.146V42.5655C67.3993 42.8008 67.1805 42.9832 66.9224 43.0863C66.5922 43.2089 66.2413 43.2661 65.8892 43.2546C65.1656 43.277 64.461 43.0209 63.921 42.539C63.5489 42.2045 63.2915 41.7615 63.1851 41.2728C63.0787 40.7841 63.1287 40.2744 63.3281 39.8156C63.4602 39.5172 63.6531 39.2496 63.8945 39.0298C64.1469 38.7877 64.4461 38.5997 64.7738 38.4771C65.1229 38.3539 65.4912 38.2938 65.8614 38.2996C66.2024 38.2909 66.5417 38.3494 66.8601 38.4718C67.1294 38.5777 67.363 38.7579 67.5338 38.9913V38.4188H68.7434V43.1486L67.5471 43.146ZM64.3971 40.742C64.3941 40.9312 64.4326 41.1187 64.5101 41.2914C64.5875 41.4641 64.702 41.6176 64.8454 41.7412C65.1439 42.0085 65.5337 42.1508 65.9343 42.1388C66.3157 42.1431 66.6842 42.0007 66.9635 41.7412C67.1019 41.6249 67.2133 41.4799 67.2901 41.3163C67.3668 41.1527 67.407 40.9743 67.4078 40.7937C67.4092 40.6062 67.37 40.4207 67.2929 40.2498C67.2157 40.0789 67.1025 39.9267 66.9609 39.8037C66.6806 39.5335 66.3051 39.3845 65.9157 39.3889C65.5202 39.3813 65.1365 39.5233 64.8414 39.7865C64.7005 39.9037 64.5873 40.0507 64.5098 40.2168C64.4323 40.3829 64.3925 40.564 64.3932 40.7473L64.3971 40.742ZM58.381 39.3756C58.0171 39.3675 57.6618 39.4861 57.3757 39.7109C57.1535 40.0031 57.0514 40.3691 57.0905 40.734V43.146H55.8465V38.4162H57.007V38.9622C57.1751 38.7637 57.3847 38.6045 57.6211 38.4957C57.8594 38.3938 58.1165 38.3432 58.3757 38.3472L58.381 39.3756ZM46.2878 41.1303C46.3031 41.2892 46.3517 41.4431 46.4306 41.5819C46.5094 41.7208 46.6167 41.8414 46.7454 41.936C47.0427 42.1438 47.4003 42.2476 47.7627 42.2315C48.0198 42.2353 48.2747 42.1828 48.5094 42.0778C48.7221 41.9832 48.9054 41.8331 49.0399 41.6431H50.3742C50.1664 42.1373 49.813 42.5566 49.3609 42.8451C48.8937 43.1351 48.3523 43.2833 47.8025 43.2719C47.4291 43.2759 47.0581 43.2131 46.7069 43.0863C46.375 42.9614 46.0706 42.7733 45.8104 42.5324C45.5635 42.3055 45.3646 42.0316 45.2255 41.7266C45.0893 41.4325 45.0183 41.1124 45.0172 40.7884C45.0166 40.4693 45.0816 40.1536 45.2082 39.8607C45.3406 39.5635 45.5324 39.2965 45.7719 39.0761C46.038 38.8233 46.3499 38.6236 46.691 38.4877C47.0276 38.3495 47.3881 38.2788 47.7521 38.2797C48.1979 38.2761 48.6391 38.3711 49.0439 38.5579C49.4382 38.7406 49.7864 39.0097 50.0625 39.3452C50.2328 39.5461 50.3621 39.7784 50.4431 40.029C50.5297 40.3101 50.5713 40.603 50.5665 40.897C50.5665 40.9222 50.5665 40.9607 50.5665 41.0137C50.5665 41.0667 50.5665 41.1064 50.5665 41.1342L46.2878 41.1303ZM49.2229 40.2569C49.1335 39.9636 48.9463 39.7096 48.6924 39.5373C48.4092 39.3632 48.0804 39.2773 47.7481 39.2908C47.4333 39.2855 47.1246 39.3782 46.8648 39.5559C46.6115 39.72 46.4237 39.9675 46.3343 40.2556L49.2229 40.2569ZM38.2518 43.146H37.2783L35.2583 38.4162H36.578L37.8141 41.5583L39.0927 38.4162H40.3778L38.2518 43.146ZM26.327 41.1303C26.3421 41.2892 26.3907 41.4432 26.4695 41.5821C26.5484 41.7209 26.6558 41.8416 26.7846 41.936C27.0819 42.1438 27.4395 42.2476 27.8019 42.2315C28.059 42.2352 28.3138 42.1827 28.5486 42.0778C28.7612 41.9829 28.9444 41.8328 29.0791 41.6431H30.4134C30.2057 42.1374 29.8522 42.5567 29.4001 42.8451C28.9324 43.135 28.3906 43.2832 27.8403 43.2719C27.4674 43.2762 27.0968 43.2133 26.7461 43.0863C26.4138 42.9614 26.1089 42.7733 25.8482 42.5324C25.6014 42.3055 25.4025 42.0316 25.2633 41.7266C25.1272 41.4325 25.0562 41.1124 25.0551 40.7884C25.0536 40.4692 25.1186 40.1533 25.2461 39.8607C25.3782 39.5633 25.5701 39.2963 25.8098 39.0761C26.0754 38.8233 26.3869 38.6236 26.7276 38.4877C27.0643 38.3498 27.4247 38.2791 27.7886 38.2797C28.2341 38.2761 28.6748 38.3711 29.0791 38.5579C29.4736 38.7411 29.822 39.0101 30.099 39.3452C30.2685 39.5463 30.3969 39.7786 30.477 40.029C30.5645 40.3099 30.6066 40.6029 30.6017 40.897C30.6017 40.9222 30.6017 40.9607 30.6017 41.0137C30.6017 41.0667 30.6017 41.1064 30.6017 41.1342L26.327 41.1303ZM29.2621 40.2569C29.173 39.9634 28.9858 39.7094 28.7316 39.5373C28.4484 39.3632 28.1196 39.2773 27.7873 39.2908C27.472 39.2854 27.1629 39.3781 26.9026 39.5559C26.6497 39.7203 26.462 39.9677 26.3721 40.2556L29.2621 40.2569ZM15.5456 38.7992C15.7699 38.6329 16.0218 38.5073 16.2896 38.4281C16.5886 38.3441 16.8982 38.3039 17.2087 38.3088C17.5486 38.3065 17.8864 38.3602 18.2088 38.4678C18.5132 38.5693 18.7957 38.7271 19.0417 38.933C19.3208 39.1594 19.5471 39.4438 19.7048 39.7666C19.8604 40.08 19.9407 40.4253 19.9396 40.7751C19.9393 41.1487 19.8483 41.5166 19.6743 41.8472C19.5162 42.1524 19.2993 42.4231 19.0359 42.644C18.7725 42.8649 18.4679 43.0314 18.1398 43.134C17.834 43.2305 17.5149 43.2784 17.1941 43.2759C16.8956 43.2761 16.5987 43.2314 16.3135 43.1433C16.037 43.0552 15.7758 42.9251 15.5389 42.7577V43.1447H14.3214V36.8855H15.5389L15.5456 38.7992ZM15.5933 40.8056C15.5906 40.9898 15.6277 41.1724 15.7021 41.341C15.7765 41.5095 15.8864 41.6601 16.0243 41.7823C16.3055 42.0457 16.6788 42.1884 17.0642 42.1798C17.4827 42.1943 17.8917 42.0526 18.2114 41.7823C18.3565 41.6607 18.4725 41.5082 18.551 41.336C18.6294 41.1638 18.6684 40.9762 18.665 40.787C18.6659 40.5997 18.6259 40.4144 18.5478 40.2441C18.4697 40.0739 18.3553 39.9227 18.2127 39.8011C17.9162 39.5282 17.5256 39.3805 17.1225 39.3889C16.7209 39.3771 16.3306 39.5227 16.0349 39.7944C15.8917 39.9212 15.7775 40.0774 15.7004 40.2524C15.6232 40.4274 15.5849 40.6171 15.588 40.8083L15.5933 40.8056Z" fill="#2A4795"/>
    <path fill-rule="evenodd" clip-rule="evenodd" d="M172.9 29.0149V31.4958H167.36L164.724 27.3385L168.616 28.0104L172.9 29.0149ZM148.762 17.2759V0.983338H154.422L167.05 20.4724V0.983338H172.898V23.8557L168.779 22.235L162.899 20.3134L159.741 19.4851L154.631 11.4223V18.2897L151.406 17.6443L148.762 17.2759ZM154.631 31.4958H148.762V26.0623L152.406 26.1166L154.631 26.2558V31.4958ZM145.384 26.0768L147.458 31.4958H141.059C140.411 29.773 139.773 28.0532 139.143 26.3366L141.549 26.1815L145.384 26.0768ZM126.404 27.5889C125.925 28.8868 125.444 30.1891 124.96 31.4958H118.771L119.931 28.5127L125.151 27.7453L126.404 27.5889ZM133.069 9.61733C132.229 11.8583 131.407 14.0595 130.598 16.2435L129.313 16.2608L124.585 16.5258L130.621 0.988636H135.775L141.718 16.5099L140.228 16.3774L135.468 16.2131C134.679 14.0237 133.879 11.8247 133.069 9.61599V9.61733ZM111.824 17.9491V0.986008H117.802V17.154L113.292 17.7212L111.824 17.9491ZM111.824 31.4958V29.8671L114.133 29.4589L117.802 28.8559V31.4958H111.824ZM89.7056 22.0296V0.983338H97.3C98.8262 0.954645 100.352 1.0602 101.86 1.29876C102.819 1.44762 103.737 1.7908 104.559 2.30725C105.817 3.16016 106.837 4.31965 107.522 5.67605C108.24 7.06205 108.611 8.60133 108.603 10.162C108.659 11.4688 108.429 12.7722 107.93 13.9813C107.431 15.1905 106.674 16.2763 105.711 17.1633C103.537 18.9938 100.748 19.9295 97.9087 19.7806H95.6832V20.8196L92.2521 21.5087L89.7056 22.0296ZM95.6832 14.6227H97.2588C98.6216 14.714 99.974 14.3325 101.088 13.5427C101.505 13.1446 101.838 12.6668 102.066 12.1376C102.295 11.6085 102.415 11.0388 102.419 10.4625C102.423 9.88618 102.311 9.31496 102.089 8.78274C101.868 8.25052 101.542 7.76818 101.13 7.36439C99.9738 6.60188 98.5968 6.24438 97.2151 6.34793H95.6832V14.6227ZM80.1841 23.9591C80.2843 23.5443 80.3333 23.1189 80.33 22.6922C80.33 20.7255 78.9153 19.3163 76.0858 18.4647C75.7277 18.3494 75.4346 18.2566 75.2264 18.1996C73.2013 17.6704 71.369 16.576 69.9437 15.0442C68.7643 13.5854 68.152 11.7499 68.2195 9.87572C68.1008 7.35947 68.9513 4.89341 70.5963 2.98447C71.4029 2.11957 72.3876 1.43961 73.4825 0.991427C74.5774 0.543248 75.7565 0.337484 76.9386 0.388297C78.0318 0.336463 79.1236 0.516176 80.1423 0.915636C81.1611 1.3151 82.0838 1.92527 82.8499 2.70614C84.422 4.50074 85.2937 6.80166 85.3049 9.1866H79.8936V8.93614C79.9128 8.50261 79.8447 8.06965 79.6935 7.66286C79.5422 7.25608 79.3108 6.88373 79.013 6.5679C78.7123 6.26621 78.3521 6.03033 77.9552 5.87519C77.5584 5.72005 77.1336 5.64906 76.7078 5.66675C76.2783 5.64504 75.8491 5.71673 75.45 5.87689C75.0509 6.03705 74.6913 6.28189 74.3961 6.59444C73.9967 7.1126 73.7273 7.71874 73.6103 8.36221C73.4934 9.00568 73.5322 9.66777 73.7237 10.2932C73.8413 10.6372 74.0292 10.9531 74.2754 11.2209C75.3435 12.0977 76.6119 12.6973 77.9678 12.9662C78.806 13.1875 79.4493 13.3744 79.9002 13.5308C81.7224 14.0574 83.3413 15.125 84.5423 16.5921C85.5874 18.0793 86.1127 19.8693 86.037 21.685C86.037 22.0658 86.0242 22.4377 85.9986 22.8009L81.6868 23.6768L80.1841 23.9591ZM67.2872 22.0269L72.7409 22.0057V22.4483C72.7017 23.4339 72.972 24.407 73.5141 25.2313L71.0432 25.6832L67.9834 26.1882C67.5219 24.8488 67.2857 23.4421 67.2845 22.0256L67.2872 22.0269ZM46.508 25.1028L45.2069 28.612L43.431 28.6929L39.0277 28.7141L49.7999 0.984673H54.9539L64.7963 26.6944L60.1994 27.3478L58.7405 27.5147L57.8319 25.1028H46.508ZM55.8558 19.4453L52.2469 9.61862L48.5611 19.4453H55.8558ZM38.4813 10.0361H31.18C30.3789 8.91817 29.3173 8.01208 28.087 7.39618C26.8129 6.79199 25.4161 6.4908 24.006 6.51622C22.8045 6.50893 21.6139 6.74471 20.5059 7.20933C19.3971 7.66956 18.3955 8.35404 17.5642 9.21973C16.6609 10.1386 15.9459 11.2248 15.4594 12.4175C14.7349 14.2106 14.534 16.1722 14.88 18.0748C15.226 19.9773 16.1048 21.7429 17.4143 23.1666C18.2499 24.0806 19.2705 24.8064 20.4083 25.2961C21.5462 25.7857 22.7753 26.0279 24.014 26.0066C25.4055 26.0283 26.7846 25.7423 28.0526 25.169C29.22 24.6305 30.223 23.7911 30.9585 22.7372H38.2743C37.3102 24.9587 35.888 26.9519 34.1005 28.5869L31.8086 28.4981L25.831 27.9892L19.73 27.1688L13.4964 26.0079L11.4049 25.507C10.6241 24.4124 9.99707 23.2161 9.54142 21.9513C8.85861 20.062 8.51687 18.0666 8.5321 16.058C8.52425 13.9796 8.93797 11.9211 9.74831 10.0069C10.5888 8.05741 11.7995 6.28919 13.3134 4.80005C14.73 3.39045 16.4082 2.27046 18.2539 1.50283C20.5899 0.585392 23.1072 0.22232 25.6075 0.442167C28.1079 0.662015 30.523 1.45877 32.6628 2.76976C35.2345 4.60785 37.2473 7.12082 38.4786 10.0308L38.4813 10.0361Z" fill="white"/>
    <path d="M172.9 29.0149V31.4958H167.36L164.724 27.3385L168.616 28.0104L172.9 29.0149ZM148.762 17.2759V0.983338H154.422L167.05 20.4724V0.983338H172.898V23.8557L168.779 22.235L162.899 20.3134L159.741 19.4851L154.631 11.4223V18.2897L151.406 17.6443L148.762 17.2759ZM154.631 31.4958H148.762V26.0623L152.406 26.1166L154.631 26.2558V31.4958ZM145.384 26.0768L147.458 31.4958H141.059C140.411 29.773 139.773 28.0532 139.143 26.3366L141.549 26.1815L145.384 26.0768ZM126.404 27.5889C125.925 28.8868 125.444 30.1891 124.96 31.4958H118.771L119.931 28.5127L125.151 27.7453L126.404 27.5889ZM133.069 9.61733C132.229 11.8583 131.407 14.0595 130.598 16.2435L129.313 16.2608L124.585 16.5258L130.621 0.988636H135.775L141.718 16.5099L140.228 16.3774L135.468 16.2131C134.679 14.0237 133.879 11.8247 133.069 9.61599V9.61733ZM111.824 17.9491V0.986008H117.802V17.154L113.292 17.7212L111.824 17.9491ZM111.824 31.4958V29.8671L114.133 29.4589L117.802 28.8559V31.4958H111.824ZM89.7056 22.0296V0.983338H97.3C98.8262 0.954645 100.352 1.0602 101.86 1.29876C102.819 1.44762 103.737 1.7908 104.559 2.30725C105.817 3.16016 106.837 4.31965 107.522 5.67605C108.24 7.06205 108.611 8.60133 108.603 10.162C108.659 11.4688 108.429 12.7722 107.93 13.9813C107.431 15.1905 106.674 16.2763 105.711 17.1633C103.537 18.9938 100.748 19.9295 97.9087 19.7806H95.6832V20.8196L92.2521 21.5087L89.7056 22.0296ZM95.6832 14.6227H97.2588C98.6216 14.714 99.974 14.3325 101.088 13.5427C101.505 13.1446 101.838 12.6668 102.066 12.1376C102.295 11.6085 102.415 11.0388 102.419 10.4625C102.423 9.88618 102.311 9.31496 102.089 8.78274C101.868 8.25052 101.542 7.76818 101.13 7.36439C99.9738 6.60188 98.5968 6.24438 97.2151 6.34793H95.6832V14.6227ZM80.1841 23.9591C80.2843 23.5443 80.3333 23.1189 80.33 22.6922C80.33 20.7255 78.9153 19.3163 76.0858 18.4647C75.7277 18.3494 75.4346 18.2566 75.2264 18.1996C73.2013 17.6704 71.369 16.5759 69.9437 15.0442C68.7643 13.5854 68.152 11.7499 68.2195 9.87572C68.1008 7.35947 68.9513 4.89341 70.5963 2.98447C71.4029 2.11957 72.3876 1.43961 73.4825 0.991427C74.5774 0.543248 75.7565 0.337484 76.9386 0.388297C78.0318 0.336463 79.1235 0.516176 80.1423 0.915636C81.1611 1.3151 82.0838 1.92527 82.8499 2.70614C84.422 4.50074 85.2937 6.80166 85.3049 9.1866H79.8936V8.93614C79.9128 8.50261 79.8447 8.06965 79.6935 7.66286C79.5422 7.25608 79.3108 6.88373 79.013 6.5679C78.7123 6.26621 78.3521 6.03033 77.9552 5.87519C77.5584 5.72005 77.1336 5.64906 76.7078 5.66675C76.2783 5.64504 75.8491 5.71673 75.45 5.87689C75.0509 6.03705 74.6913 6.28189 74.3961 6.59444C73.9967 7.1126 73.7273 7.71874 73.6103 8.36221C73.4934 9.00568 73.5322 9.66777 73.7237 10.2932C73.8413 10.6372 74.0292 10.9531 74.2754 11.2209C75.3435 12.0977 76.6119 12.6973 77.9678 12.9662C78.806 13.1875 79.4493 13.3744 79.9002 13.5308C81.7224 14.0574 83.3413 15.125 84.5423 16.5921C85.5874 18.0793 86.1127 19.8693 86.037 21.685C86.037 22.0658 86.0242 22.4377 85.9986 22.8009L81.6868 23.6768L80.1841 23.9591ZM67.2871 22.0269L72.7409 22.0057V22.4483C72.7017 23.4339 72.972 24.407 73.5141 25.2313L71.0432 25.6832L67.9834 26.1882C67.5219 24.8488 67.2857 23.4421 67.2845 22.0256L67.2871 22.0269ZM46.508 25.1028L45.2069 28.612L43.431 28.6929L39.0277 28.7141L49.7999 0.984673H54.9539L64.7963 26.6944L60.1994 27.3478L58.7405 27.5147L57.8319 25.1028H46.508ZM55.8558 19.4453L52.2469 9.61862L48.5611 19.4453H55.8558ZM38.4813 10.0361H31.18C30.3789 8.91817 29.3173 8.01208 28.087 7.39618C26.8129 6.79199 25.4161 6.4908 24.006 6.51622C22.8045 6.50893 21.6139 6.74471 20.5059 7.20933C19.3971 7.66956 18.3955 8.35404 17.5642 9.21973C16.6609 10.1386 15.9459 11.2248 15.4594 12.4175C14.7349 14.2106 14.534 16.1722 14.88 18.0748C15.226 19.9773 16.1048 21.7429 17.4143 23.1666C18.2499 24.0806 19.2705 24.8064 20.4083 25.2961C21.5462 25.7857 22.7753 26.0279 24.014 26.0066C25.4055 26.0283 26.7846 25.7423 28.0526 25.169C29.22 24.6305 30.223 23.7911 30.9585 22.7372H38.2743C37.3102 24.9587 35.888 26.9519 34.1005 28.5869L31.8086 28.4981L25.831 27.9892L19.73 27.1688L13.4964 26.0079L11.4049 25.507C10.6241 24.4124 9.99707 23.2161 9.54142 21.9513C8.85861 20.062 8.51687 18.0666 8.5321 16.058C8.52425 13.9796 8.93797 11.9211 9.74831 10.0069C10.5888 8.05741 11.7995 6.28919 13.3134 4.80005C14.73 3.39045 16.4082 2.27046 18.2539 1.50283C20.5899 0.585392 23.1072 0.22232 25.6075 0.442167C28.1079 0.662015 30.523 1.45877 32.6628 2.76976C35.2345 4.60785 37.2473 7.12082 38.4786 10.0308L38.4813 10.0361Z" stroke="#2A4795" stroke-width="0.567" stroke-miterlimit="22.926"/>
    <path fill-rule="evenodd" clip-rule="evenodd" d="M172.9 29.0149V31.4958H167.36L164.724 27.3385L168.616 28.0104L172.9 29.0149ZM148.762 17.2759V0.983338H154.422L167.05 20.4724V0.983338H172.898V23.8557L168.779 22.235L162.899 20.3134L159.741 19.4851L154.631 11.4223V18.2897L151.406 17.6443L148.762 17.2759ZM154.631 31.4958H148.762V26.0623L152.406 26.1166L154.631 26.2558V31.4958ZM145.384 26.0768L147.458 31.4958H141.059C140.411 29.773 139.773 28.0532 139.143 26.3366L141.549 26.1815L145.384 26.0768ZM126.404 27.5889C125.925 28.8868 125.444 30.1891 124.96 31.4958H118.771L119.931 28.5127L125.151 27.7453L126.404 27.5889ZM133.069 9.61733C132.229 11.8583 131.407 14.0595 130.598 16.2435L129.313 16.2608L124.585 16.5258L130.621 0.988636H135.775L141.718 16.5099L140.228 16.3774L135.468 16.2131C134.679 14.0237 133.879 11.8247 133.069 9.61599V9.61733ZM111.824 17.9491V0.986008H117.802V17.154L113.292 17.7212L111.824 17.9491ZM111.824 31.4958V29.8671L114.133 29.4589L117.802 28.8559V31.4958H111.824ZM89.7056 22.0296V0.983338H97.3C98.8262 0.954645 100.352 1.0602 101.86 1.29876C102.819 1.44762 103.737 1.7908 104.559 2.30725C105.817 3.16016 106.837 4.31965 107.522 5.67605C108.24 7.06205 108.611 8.60133 108.603 10.162C108.659 11.4688 108.429 12.7722 107.93 13.9813C107.431 15.1905 106.674 16.2763 105.711 17.1633C103.537 18.9938 100.748 19.9295 97.9087 19.7806H95.6832V20.8196L92.2521 21.5087L89.7056 22.0296ZM95.6832 14.6227H97.2588C98.6216 14.714 99.974 14.3325 101.088 13.5427C101.505 13.1446 101.838 12.6668 102.066 12.1376C102.295 11.6085 102.415 11.0388 102.419 10.4625C102.423 9.88618 102.311 9.31496 102.089 8.78274C101.868 8.25052 101.542 7.76818 101.13 7.36439C99.9738 6.60188 98.5968 6.24438 97.2151 6.34793H95.6832V14.6227ZM80.1841 23.9591C80.2843 23.5443 80.3333 23.1189 80.33 22.6922C80.33 20.7255 78.9153 19.3163 76.0858 18.4647C75.7277 18.3494 75.4346 18.2566 75.2264 18.1996C73.2013 17.6704 71.369 16.576 69.9437 15.0442C68.7643 13.5854 68.152 11.7499 68.2195 9.87572C68.1008 7.35947 68.9513 4.89341 70.5963 2.98447C71.4029 2.11957 72.3876 1.43961 73.4825 0.991427C74.5774 0.543248 75.7565 0.337484 76.9386 0.388297C78.0318 0.336463 79.1236 0.516176 80.1423 0.915636C81.1611 1.3151 82.0838 1.92527 82.8499 2.70614C84.422 4.50074 85.2937 6.80166 85.3049 9.1866H79.8936V8.93614C79.9128 8.50261 79.8447 8.06965 79.6935 7.66286C79.5422 7.25608 79.3108 6.88373 79.013 6.5679C78.7123 6.26621 78.3521 6.03033 77.9552 5.87519C77.5584 5.72005 77.1336 5.64906 76.7078 5.66675C76.2783 5.64504 75.8491 5.71673 75.45 5.87689C75.0509 6.03705 74.6913 6.28189 74.3961 6.59444C73.9967 7.1126 73.7273 7.71874 73.6103 8.36221C73.4934 9.00568 73.5322 9.66777 73.7237 10.2932C73.8413 10.6372 74.0292 10.9531 74.2754 11.2209C75.3435 12.0977 76.6119 12.6973 77.9678 12.9662C78.806 13.1875 79.4493 13.3744 79.9002 13.5308C81.7224 14.0574 83.3413 15.125 84.5423 16.5921C85.5874 18.0793 86.1127 19.8693 86.037 21.685C86.037 22.0658 86.0242 22.4377 85.9986 22.8009L81.6868 23.6768L80.1841 23.9591ZM67.2872 22.0269L72.7409 22.0057V22.4483C72.7017 23.4339 72.972 24.407 73.5141 25.2313L71.0432 25.6832L67.9834 26.1882C67.5219 24.8488 67.2857 23.4421 67.2845 22.0256L67.2872 22.0269ZM46.508 25.1028L45.2069 28.612L43.431 28.6929L39.0277 28.7141L49.7999 0.984673H54.9539L64.7963 26.6944L60.1994 27.3478L58.7405 27.5147L57.8319 25.1028H46.508ZM55.8558 19.4453L52.2469 9.61862L48.5611 19.4453H55.8558ZM38.4813 10.0361H31.18C30.3789 8.91817 29.3173 8.01208 28.087 7.39618C26.8129 6.79199 25.4161 6.4908 24.006 6.51622C22.8045 6.50893 21.6139 6.74471 20.5059 7.20933C19.3971 7.66956 18.3955 8.35404 17.5642 9.21973C16.6609 10.1386 15.9459 11.2248 15.4594 12.4175C14.7349 14.2106 14.534 16.1722 14.88 18.0748C15.226 19.9773 16.1048 21.7429 17.4143 23.1666C18.2499 24.0806 19.2705 24.8064 20.4083 25.2961C21.5462 25.7857 22.7753 26.0279 24.014 26.0066C25.4055 26.0283 26.7846 25.7423 28.0526 25.169C29.22 24.6305 30.223 23.7911 30.9585 22.7372H38.2743C37.3102 24.9587 35.888 26.9519 34.1005 28.5869L31.8086 28.4981L25.831 27.9892L19.73 27.1688L13.4964 26.0079L11.4049 25.507C10.6241 24.4124 9.99707 23.2161 9.54142 21.9513C8.85861 20.062 8.51687 18.0666 8.5321 16.058C8.52425 13.9796 8.93797 11.9211 9.74831 10.0069C10.5888 8.05741 11.7995 6.28919 13.3134 4.80005C14.73 3.39045 16.4082 2.27046 18.2539 1.50283C20.5899 0.585392 23.1072 0.22232 25.6075 0.442167C28.1079 0.662015 30.523 1.45877 32.6628 2.76976C35.2345 4.60785 37.2473 7.12082 38.4786 10.0308L38.4813 10.0361Z" fill="#2A4795"/>
    <path fill-rule="evenodd" clip-rule="evenodd" d="M0 24.358C62.8255 57.3102 121.301 9.29528 180 29.0997C115.515 -2.93805 71.5087 47.4385 0 24.358Z" fill="#F99300"/>
    <path fill-rule="evenodd" clip-rule="evenodd" d="M168.765 28.294C167.526 28.0383 166.283 27.8262 164.696 27.6009L164.579 27.585L164.517 27.487L159.281 19.2347L158.925 18.6754L159.564 18.8543C161.74 19.4679 164.489 20.2829 167.179 21.1708C169.238 21.852 171.272 22.5783 172.996 23.2912L173.152 23.3575V29.3211L172.838 29.2429C171.246 28.8453 170.001 28.5498 168.764 28.2954L168.765 28.294ZM151.689 26.273C150.709 26.2421 149.733 26.2236 148.762 26.2174H148.51V16.8718L148.799 16.9128C149.782 17.0551 150.76 17.2128 151.731 17.386C152.703 17.5591 153.688 17.7495 154.685 17.9571L154.887 17.9995V26.4188L154.621 26.4029C153.636 26.3464 152.659 26.3026 151.689 26.2717V26.273ZM142.24 26.3499C141.217 26.3967 140.185 26.4546 139.145 26.5235L138.956 26.5354L138.891 26.3565L138.031 24.0016C137.074 21.3882 135.767 17.81 135.17 16.1614L135.045 15.8142L135.414 15.8222C136.466 15.846 137.516 15.884 138.564 15.9361C139.625 15.99 140.681 16.0598 141.732 16.1455L141.893 16.1588L141.948 16.3098L145.565 25.8993L145.69 26.2333L145.333 26.2425C144.309 26.2655 143.278 26.3004 142.24 26.3472V26.3499Z" fill="#2A4795"/>
</svg>
