<svg width="30" height="30" viewBox="0 0 30 30" fill="none" xmlns="http://www.w3.org/2000/svg">
    <path d="M16.7628 15L22.7454 9.01717C22.91 8.85248 23.0008 8.63276 23.001 8.39846C23.001 8.16404 22.9102 7.94406 22.7454 7.77963L22.2212 7.2555C22.0563 7.09041 21.8366 7 21.6021 7C21.3679 7 21.1482 7.09041 20.9833 7.2555L15.0008 13.2379L9.01795 7.2555C8.85339 7.09041 8.63354 7 8.39912 7C8.16495 7 7.9451 7.09041 7.78054 7.2555L7.25602 7.77963C6.91466 8.12098 6.91466 8.67621 7.25602 9.01717L13.2387 15L7.25602 20.9826C7.09132 21.1475 7.00065 21.3672 7.00065 21.6015C7.00065 21.8358 7.09132 22.0555 7.25602 22.2204L7.78041 22.7445C7.94497 22.9095 8.16495 23 8.39899 23C8.63341 23 8.85326 22.9095 9.01782 22.7445L15.0006 16.7619L20.9832 22.7445C21.148 22.9095 21.3678 23 21.6019 23H21.6022C21.8365 23 22.0562 22.9095 22.221 22.7445L22.7453 22.2204C22.9098 22.0557 23.0006 21.8358 23.0006 21.6015C23.0006 21.3672 22.9098 21.1475 22.7453 20.9827L16.7628 15Z" fill="#808080"/>
</svg>
