<svg width="106" height="77" viewBox="0 0 106 77" fill="none" xmlns="http://www.w3.org/2000/svg">
    <path fill-rule="evenodd" clip-rule="evenodd" d="M53.865 36.0242V36.9792C54.4323 37.8499 54.7918 39.1138 54.7918 40.5181C54.7918 42.6415 53.9773 44.4447 52.8482 45.0514V46.5624C53.1909 47.1747 53.4156 48.2645 53.4156 49.5059C53.4156 51.4271 52.8763 52.9775 52.2022 52.9775C51.5338 52.9775 50.9945 51.4271 50.9945 49.5059C50.9945 48.3656 51.1855 47.3545 51.4832 46.7197V45.1918C50.1856 44.7761 49.2082 42.8437 49.2082 40.5181C49.2082 38.788 49.7531 37.2713 50.562 36.4399V35.7546C49.3935 34.9345 48.6071 33.3672 48.6071 31.5697C48.6071 30.0474 49.1745 28.6936 50.0564 27.8116V26.4635C49.7868 26.5084 49.5115 26.5814 49.2306 26.6826C47.6802 27.2555 46.3377 27.6207 46.0512 27.2106C45.7647 26.8061 46.9893 25.9916 46.6635 25.5815C46.3377 25.1771 43.7256 26.1545 43.3998 25.1771C43.074 24.1941 45.0513 24.767 44.703 23.6885C43.3605 22.7111 41.6191 23.8907 41.1585 22.8908C40.6979 21.8909 42.8268 22.2785 42.0966 21.5483C41.3607 20.8124 40.4226 21.4247 39.771 20.5259C39.1194 19.6328 39.4396 19.0542 39.4396 19.0542L40.872 19.3856C40.872 19.3856 40.2597 18.4082 39.5294 17.9588C38.7936 17.5094 37.9397 17.3072 38.0577 16.6162C38.1813 15.9197 38.9958 16.0039 38.9958 16.0039C38.9958 16.0039 46.6635 18.2453 47.2702 19.262C47.8825 20.2844 48.0454 23.666 49.1857 23.6267C50.1687 23.593 50.4271 22.8684 51.5394 22.6605C51.6236 22.6268 51.7191 22.6043 51.8371 22.6043C51.8933 22.6043 51.9494 22.61 52 22.61C52.0562 22.61 52.1067 22.6043 52.1629 22.6043C51.3315 22.6043 50.6575 21.9303 50.6575 21.0989C50.6575 20.2675 51.3315 19.5934 52.1629 19.5934C52.9999 19.5934 53.674 20.2675 53.674 21.0989C53.674 21.9303 52.9999 22.6043 52.1629 22.6043C52.2809 22.6043 52.3764 22.6268 52.4662 22.6605C53.5729 22.8684 53.8313 23.593 54.8143 23.6267C55.9546 23.666 56.1175 20.2844 56.7298 19.262C57.3421 18.2453 65.0042 16.0039 65.0042 16.0039C65.0042 16.0039 65.8187 15.9197 65.9423 16.6162C66.0603 17.3072 65.2064 17.5094 64.4706 17.9588C63.7403 18.4082 63.128 19.3856 63.128 19.3856L64.5604 19.0542C64.5604 19.0542 64.8806 19.6328 64.229 20.5259C63.5774 21.4247 62.6393 20.8124 61.9034 21.5483C61.1732 22.2785 63.3022 21.8909 62.8415 22.8908C62.3865 23.8907 60.6395 22.7111 59.297 23.6885C58.9487 24.767 60.926 24.1941 60.6002 25.1771C60.2744 26.1545 57.6679 25.1771 57.3421 25.5815C57.0163 25.9916 58.2353 26.8061 57.9488 27.2106C57.6735 27.615 56.3759 27.2668 54.8649 26.7163V27.851C55.7243 28.7329 56.2692 30.0698 56.2692 31.5697C56.2692 33.5863 55.2749 35.3165 53.865 36.0242ZM51.9214 36.0186H52.5112L52.9999 24.6434C52.9999 24.6434 52.9269 24.0817 52.3707 24.0817C51.809 24.0817 51.6012 24.5142 51.6012 24.5142L51.9214 36.0186ZM51.6517 43.6976C50.9271 43.3043 50.3878 41.9674 50.3878 40.3833C50.3878 38.7992 50.9271 37.4623 51.6517 37.0691V43.6976ZM52.5505 37.0691C53.2751 37.4623 53.8144 38.7992 53.8144 40.3833C53.8144 41.9674 53.2751 43.3043 52.5505 43.6976V37.0691Z" fill="#0C4727"/>
    <path fill-rule="evenodd" clip-rule="evenodd" d="M52.1629 17.1443C52.5898 17.1443 52.9381 17.4926 52.9381 17.9195C52.9381 18.3464 52.5898 18.6947 52.1629 18.6947C51.736 18.6947 51.3877 18.3464 51.3877 17.9195C51.3877 17.4926 51.736 17.1443 52.1629 17.1443Z" fill="#0C4727"/>
    <path d="M44.3098 12.7063L44.748 13.2511C44.1357 13.7342 43.5852 14.0994 43.1021 14.3409C42.619 14.5825 42.1471 14.7454 41.6865 14.824C41.5629 14.8521 41.4394 14.8689 41.3045 14.8746C41.1753 14.8858 41.0461 14.8858 40.9282 14.8858C39.2991 14.8858 37.9734 14.5094 36.9511 13.7567C35.9287 13.004 35.4232 11.9704 35.4232 10.6671C35.4232 10.5042 35.4288 10.3413 35.4456 10.1728C35.4569 10.0043 35.4793 9.83016 35.513 9.65602C35.7096 8.52693 36.2714 7.48771 37.1814 6.544C38.097 5.60028 39.4115 5.12842 41.136 5.12842C42.0685 5.12842 42.7931 5.28009 43.3099 5.58343C43.8267 5.88676 44.175 6.22942 44.3604 6.60579C44.4334 6.72375 44.4896 6.85295 44.5177 6.97653C44.5514 7.10573 44.5682 7.2237 44.5682 7.33043C44.5682 7.5495 44.4727 7.7405 44.2874 7.92025C44.1076 8.09439 43.8604 8.17865 43.5515 8.17865C43.2144 8.17865 42.9448 8.12248 42.7482 8.01013C42.546 7.89216 42.3831 7.76296 42.2595 7.61691C42.2033 7.53265 42.1528 7.45963 42.1134 7.38098C42.0741 7.30796 42.046 7.24617 42.0292 7.18999C42.0179 7.16191 42.0067 7.13944 41.9955 7.12258C41.9899 7.10012 41.9786 7.07765 41.9618 7.04956C41.8719 6.80801 41.7483 6.60017 41.5966 6.43165C41.4394 6.26313 41.181 6.17887 40.8102 6.17887C40.1642 6.17887 39.6811 6.43165 39.3609 6.93721C39.0351 7.44277 38.8273 7.99889 38.7374 8.60557C38.7093 8.79094 38.6812 8.97632 38.67 9.16169C38.6531 9.34145 38.6475 9.51558 38.6475 9.67287C38.6475 10.8862 38.8891 11.8861 39.3722 12.6725C39.8553 13.4646 40.6136 13.8578 41.6416 13.8578C42.1752 13.8578 42.6639 13.7398 43.0909 13.5039C43.5234 13.268 43.9279 13.004 44.3098 12.7063Z" fill="#0C4727"/>
    <path d="M47.1185 5.47705H52.1067C52.3089 5.47705 52.5505 5.47705 52.8313 5.48829C53.1178 5.4939 53.4043 5.52199 53.702 5.57816C54.2413 5.67366 54.7412 5.8815 55.1962 6.20169C55.6569 6.5275 55.8816 7.07238 55.8816 7.83635C55.8816 7.94869 55.8703 8.06104 55.8535 8.18462C55.831 8.30259 55.7973 8.43179 55.7411 8.5666C55.6344 8.80815 55.4153 9.04408 55.0839 9.27439C54.7581 9.50471 54.2413 9.66761 53.5391 9.77996V9.88107C54.2919 9.97095 54.8704 10.1507 55.2693 10.4035C55.6625 10.6619 55.949 10.9315 56.1231 11.2124C56.2467 11.4146 56.3253 11.6112 56.3703 11.8078C56.4096 12.0044 56.4265 12.1673 56.4265 12.3022C56.4265 12.4257 56.404 12.5943 56.359 12.8077C56.3085 13.0212 56.213 13.2459 56.0669 13.4762C55.8479 13.8132 55.4884 14.1166 54.9716 14.3918C54.4604 14.6671 53.7076 14.8075 52.7134 14.8075H47.1185V14.0997H47.4387C47.815 14.0997 48.0341 14.0379 48.0959 13.92C48.1577 13.7964 48.1858 13.6672 48.1858 13.5324C48.2026 13.4537 48.2082 13.3975 48.2195 13.3638C48.2251 13.3301 48.2251 13.3077 48.2251 13.2908C48.2251 13.2796 48.2251 13.2683 48.2251 13.2627C48.2251 13.2571 48.2251 13.2459 48.2251 13.2346V7.04991C48.2251 7.03868 48.2251 7.02744 48.2251 7.02183C48.2251 7.01621 48.2251 7.00498 48.2251 6.98812C48.2251 6.97689 48.2251 6.95442 48.2195 6.92071C48.2082 6.88701 48.2026 6.83084 48.1858 6.74658C48.1858 6.60052 48.1577 6.47133 48.0959 6.35336C48.0341 6.24101 47.815 6.18484 47.4387 6.18484H47.1185V5.47705ZM50.7304 10.4877V13.1897C50.7304 13.3414 50.7754 13.4706 50.854 13.5829C50.9327 13.7009 51.1854 13.7571 51.6011 13.7571C52.2584 13.7571 52.7302 13.6335 53.0055 13.3863C53.2807 13.1335 53.4605 12.8639 53.5391 12.5662C53.5672 12.4426 53.5841 12.3246 53.5897 12.2123C53.5953 12.0999 53.6009 11.9932 53.6009 11.8977C53.6009 11.3584 53.3931 10.9933 52.983 10.7967C52.5729 10.6001 52.1179 10.499 51.6236 10.4877C51.5955 10.4877 51.5618 10.4877 51.5281 10.4877C51.4944 10.4877 51.4607 10.4877 51.4214 10.4877H50.7304ZM50.7304 9.47662H51.4775C51.573 9.47662 51.6854 9.471 51.8146 9.45415C51.9438 9.44291 52.073 9.41483 52.2078 9.37551C52.4381 9.3081 52.646 9.18452 52.8313 9.01038C53.0223 8.83624 53.1403 8.5666 53.1965 8.20148C53.1965 8.17339 53.2021 8.15092 53.2077 8.13407C53.2133 8.1116 53.2189 8.08913 53.2189 8.06104C53.2189 8.03295 53.2189 8.01048 53.2189 7.98802C53.2189 7.97116 53.2189 7.94869 53.2189 7.92061C53.2189 7.89252 53.2189 7.87005 53.2189 7.84758C53.2189 7.83073 53.2189 7.81388 53.2189 7.79702C53.2021 7.76894 53.1965 7.74647 53.1965 7.72962C53.1965 7.70715 53.1965 7.69029 53.1965 7.67906C53.1571 7.38134 53.0616 7.15103 52.9156 6.98812C52.7639 6.83084 52.6123 6.71287 52.4494 6.64546C52.3258 6.59491 52.2078 6.5612 52.0842 6.54435C51.9663 6.53312 51.8708 6.5275 51.8034 6.5275C51.5056 6.5275 51.2529 6.55559 51.045 6.60614C50.8372 6.66232 50.7304 6.8196 50.7304 7.08924V9.47662Z" fill="#0C4727"/>
    <path d="M66.6558 5.60059L67.3635 8.36433H66.7569C66.285 7.5442 65.8693 7.0611 65.5154 6.90943C65.1559 6.76338 64.8751 6.6735 64.6728 6.64542C64.6728 6.64542 64.6728 6.64542 64.6672 6.64542C64.656 6.64542 64.656 6.64542 64.656 6.64542C64.6391 6.64542 64.6223 6.64542 64.6054 6.64542C64.583 6.64542 64.5661 6.64542 64.5549 6.64542C64.538 6.64542 64.5268 6.64542 64.5043 6.64542C64.4818 6.64542 64.465 6.64542 64.4538 6.64542C64.347 6.64542 64.2571 6.68474 64.1897 6.75776C64.1223 6.83079 64.0886 7.01055 64.0886 7.29703V13.5155C64.0886 13.7851 64.1448 13.9705 64.2628 14.0716C64.3751 14.1727 64.583 14.2232 64.8751 14.2232H65.2009V14.931H60.4935V14.2232H60.8193C61.1002 14.2232 61.2968 14.1727 61.4148 14.0716C61.5271 13.9705 61.5833 13.7851 61.5833 13.5155V7.03302C61.5833 6.85888 61.5496 6.74653 61.4765 6.69597C61.3979 6.65103 61.308 6.62856 61.2013 6.62856C61.1901 6.62856 61.1732 6.62856 61.162 6.62856C61.1451 6.62856 61.1339 6.62856 61.1226 6.62856C61.1058 6.6398 61.0946 6.64542 61.0777 6.64542C61.0665 6.64542 61.0552 6.64542 61.0384 6.64542C61.0103 6.64542 60.8643 6.67912 60.5946 6.74091C60.325 6.79709 60.0385 6.97684 59.7239 7.27456C59.5947 7.39814 59.4543 7.54981 59.3139 7.72957C59.1734 7.90933 59.0442 8.12279 58.9375 8.36433H58.314L59.0386 5.60059H66.6558Z" fill="#0C4727"/>
    <path fill-rule="evenodd" clip-rule="evenodd" d="M52 0C55.4884 0 58.724 1.747 61.4035 4.74106H60.7743C58.2409 2.03349 55.23 0.460624 52 0.460624C48.8486 0.460624 45.9051 1.96046 43.4054 4.55007H42.7706C45.4164 1.67398 48.5902 0 52 0ZM65.1727 10.527C67.4309 15.2512 68.7791 21.2168 68.7791 27.7049C68.7791 35.3333 66.9141 42.2426 63.9032 47.2533C60.8642 52.2921 56.6568 55.4097 52 55.4097C47.3432 55.4097 43.1358 52.2921 40.1024 47.2533C37.0859 42.2426 35.2209 35.3333 35.2209 27.7049C35.2209 23.0986 35.9006 18.7508 37.1027 14.931H37.5858C36.3724 18.7395 35.6815 23.0874 35.6815 27.7049C35.6815 35.249 37.524 42.0741 40.4956 47.0118C43.4503 51.9157 47.5173 54.9491 52 54.9491C56.4826 54.9491 60.5496 51.9157 63.5043 47.0118C66.4816 42.0741 68.3184 35.249 68.3184 27.7049C68.3184 21.6943 67.15 16.1443 65.1727 11.6336V10.527Z" fill="#0C4727"/>
    <path d="M4.14562 65.7006C2.87048 65.7006 1.86497 65.3186 1.11786 64.5491C0.370746 63.7795 0 62.7009 0 61.3078C0 59.9653 0.376364 58.8924 1.12347 58.0947C1.87058 57.297 2.88171 56.8982 4.15124 56.8982C4.48266 56.8982 4.79162 56.915 5.05563 56.9544C5.32527 56.9881 5.58367 57.0442 5.83083 57.1117C6.02182 57.1678 6.23528 57.2465 6.45998 57.3476C6.69029 57.4431 6.87566 57.5273 7.01048 57.6004V59.6226H6.79702C6.69591 59.5327 6.56671 59.426 6.40942 59.2968C6.25213 59.1732 6.078 59.0496 5.88139 58.9261C5.68478 58.8081 5.4657 58.7014 5.22977 58.6171C4.99384 58.5328 4.74668 58.4935 4.48828 58.4935C4.17932 58.4935 3.89846 58.5385 3.64006 58.6396C3.38727 58.7351 3.14573 58.9036 2.9098 59.1395C2.70196 59.353 2.52782 59.6451 2.393 60.0158C2.25818 60.381 2.19077 60.8135 2.19077 61.3134C2.19077 61.8415 2.25818 62.2796 2.39862 62.6391C2.53905 62.9987 2.72442 63.2851 2.95474 63.5042C3.17381 63.7177 3.41536 63.8694 3.69061 63.9648C3.96025 64.0603 4.22988 64.1053 4.49951 64.1053C4.78038 64.1053 5.0444 64.0603 5.3028 63.9705C5.55558 63.8806 5.76904 63.7739 5.94318 63.6615C6.13417 63.5492 6.30269 63.4312 6.44312 63.3076C6.58918 63.1896 6.71276 63.0829 6.81949 62.9874H7.01048V64.976C6.85881 65.049 6.67905 65.1276 6.47121 65.2231C6.26899 65.3186 6.05553 65.3973 5.84207 65.4591C5.57805 65.5377 5.33088 65.5995 5.10057 65.6388C4.86464 65.6838 4.55007 65.7006 4.14562 65.7006ZM15.9758 61.3078C15.9758 62.6785 15.6107 63.7514 14.8804 64.5378C14.1502 65.3242 13.1446 65.7175 11.8751 65.7175C10.6 65.7175 9.59447 65.3186 8.86983 64.521C8.13957 63.7289 7.77444 62.656 7.77444 61.3078C7.77444 59.9484 8.13957 58.8699 8.86983 58.0835C9.59447 57.2914 10.6 56.8982 11.8751 56.8982C13.1446 56.8982 14.1502 57.2914 14.8804 58.0778C15.6107 58.8643 15.9758 59.9428 15.9758 61.3078ZM13.785 61.3022C13.785 60.7966 13.7345 60.3697 13.6277 60.0158C13.5266 59.6563 13.3862 59.3698 13.2121 59.1395C13.0323 58.9092 12.8245 58.7407 12.5941 58.6452C12.3638 58.5441 12.1279 58.4935 11.8807 58.4935C11.6167 58.4935 11.3808 58.5385 11.1673 58.634C10.9539 58.7238 10.7516 58.8924 10.555 59.1283C10.3753 59.3474 10.2348 59.6395 10.1281 60.0046C10.0214 60.3697 9.96522 60.8023 9.96522 61.3078C9.96522 61.8302 10.0158 62.2572 10.1225 62.5998C10.2236 62.9481 10.364 63.2346 10.5438 63.4649C10.7236 63.7008 10.9314 63.8694 11.1617 63.9648C11.392 64.066 11.6336 64.1165 11.8807 64.1165C12.1335 64.1165 12.3751 64.066 12.611 63.9536C12.8413 63.8469 13.0492 63.6784 13.2177 63.4537C13.403 63.2065 13.5435 62.92 13.639 62.5886C13.7401 62.2628 13.785 61.8359 13.785 61.3022ZM29.1092 61.3078C29.1092 61.9538 29.0193 62.5549 28.8396 63.0998C28.6654 63.6503 28.407 64.1109 28.07 64.4929C27.7105 64.8917 27.2723 65.2007 26.7724 65.4029C26.2668 65.6107 25.6995 65.7175 25.0647 65.7175C23.8907 65.7175 22.9526 65.3636 22.256 64.6558C21.5539 63.9536 21.1663 62.993 21.082 61.7797H19.3687V65.5377H17.2341V57.0723H19.3687V60.1787H21.1606C21.3348 59.1564 21.7617 58.3475 22.447 57.7689C23.1323 57.1847 24.003 56.8982 25.0647 56.8982C26.3174 56.8982 27.3004 57.2914 28.0251 58.0778C28.7497 58.8643 29.1092 59.9428 29.1092 61.3078ZM26.3623 63.4537C26.5533 63.1896 26.6881 62.8863 26.7836 62.538C26.8735 62.1898 26.9184 61.7797 26.9184 61.3022C26.9184 60.7966 26.8679 60.3697 26.7668 60.0158C26.66 59.6563 26.5252 59.3698 26.3511 59.1395C26.1713 58.9148 25.9747 58.7463 25.75 58.6452C25.5253 58.5441 25.295 58.4935 25.0479 58.4935C24.8007 58.4935 24.5704 58.5385 24.3513 58.6396C24.1322 58.7407 23.93 58.9036 23.7446 59.1283C23.5705 59.353 23.4301 59.6451 23.3233 60.0046C23.2166 60.3641 23.166 60.8023 23.166 61.3078C23.166 61.8302 23.2166 62.2572 23.3177 62.5998C23.4188 62.9481 23.5593 63.2346 23.7334 63.4649C23.9075 63.6896 24.1041 63.8525 24.3288 63.9592C24.5591 64.066 24.7951 64.1165 25.0479 64.1165C25.3006 64.1165 25.5422 64.066 25.7725 63.9536C25.9972 63.8413 26.1938 63.6784 26.3623 63.4537ZM35.8501 61.5213C36.041 61.6842 36.1927 61.8864 36.3051 62.128C36.423 62.3695 36.4792 62.6616 36.4792 63.0099C36.4792 63.8525 36.1534 64.5153 35.5018 64.9928C34.8558 65.4647 33.9177 65.7006 32.7043 65.7006C32.1482 65.7006 31.6202 65.6557 31.1202 65.5546C30.6203 65.4591 30.1597 65.3242 29.744 65.1501V63.2571H29.935C30.2215 63.4537 30.5922 63.6447 31.0584 63.83C31.5191 64.0154 31.9741 64.1053 32.4178 64.1053C32.9908 64.1053 33.4458 64.0042 33.7829 63.8019C34.1199 63.5941 34.2884 63.2795 34.2884 62.8582C34.2884 62.4875 34.1648 62.2178 33.9177 62.0437C33.6705 61.8639 33.2267 61.7797 32.592 61.7797H31.373V60.263H32.5302C33.0582 60.263 33.4402 60.1844 33.6874 60.0215C33.9289 59.8642 34.0525 59.6226 34.0525 59.3024C34.0525 59.0159 33.9177 58.8137 33.6481 58.6845C33.3784 58.5553 33.0189 58.4935 32.5695 58.4935C32.3167 58.4935 32.0752 58.516 31.8505 58.5666C31.6202 58.6227 31.3955 58.6901 31.1764 58.7632C30.9742 58.8418 30.7832 58.9204 30.6147 59.0103C30.4405 59.1002 30.3113 59.1676 30.2215 59.2126H30.0248V57.4543C30.272 57.3476 30.6708 57.2296 31.227 57.0948C31.7887 56.9656 32.3729 56.8982 32.9852 56.8982C34.075 56.8982 34.8895 57.0779 35.4344 57.4375C35.9736 57.8026 36.2433 58.3025 36.2433 58.9485C36.2433 59.4316 36.0972 59.8473 35.7995 60.1956C35.5018 60.5439 35.1198 60.7798 34.6536 60.8921V60.9764C34.8277 61.0101 35.0299 61.0719 35.2602 61.1674C35.4905 61.2629 35.6872 61.3809 35.8501 61.5213ZM44.557 62.9481C44.557 63.3694 44.4783 63.7345 44.3211 64.0547C44.1582 64.3749 43.9447 64.6389 43.6751 64.8468C43.3549 65.0939 43.0066 65.2737 42.6246 65.3804C42.2426 65.4872 41.7595 65.5377 41.1697 65.5377H37.7768V57.0723H40.7765C41.4 57.0723 41.8719 57.0948 42.1921 57.1397C42.5123 57.1903 42.8156 57.2858 43.0965 57.4375C43.3998 57.6004 43.6245 57.8194 43.7762 58.0947C43.9222 58.3699 44.0009 58.6845 44.0009 59.0384C44.0009 59.4485 43.8941 59.8192 43.6863 60.1394C43.4841 60.4652 43.1976 60.7012 42.8325 60.8528V60.8978C43.3549 61.0101 43.7706 61.2348 44.0851 61.5718C44.3997 61.9145 44.557 62.3695 44.557 62.9481ZM41.8326 59.4597C41.8326 59.3249 41.7989 59.1845 41.7258 59.0384C41.6584 58.898 41.5517 58.7912 41.4 58.7295C41.2596 58.6677 41.0967 58.634 40.9001 58.6283C40.7091 58.6227 40.4226 58.6171 40.0462 58.6171H39.9002V60.4147H40.1642C40.5293 60.4147 40.7821 60.4091 40.9338 60.4034C41.0798 60.3922 41.2259 60.3529 41.3832 60.2799C41.5517 60.2012 41.6697 60.0945 41.7371 59.954C41.7989 59.8136 41.8326 59.6507 41.8326 59.4597ZM42.3662 62.9088C42.3662 62.6504 42.3157 62.4425 42.2089 62.2965C42.1022 62.1504 41.9449 62.0381 41.7314 61.9594C41.6022 61.9089 41.4225 61.8864 41.1978 61.8808C40.9731 61.8696 40.6698 61.8696 40.2934 61.8696H39.9002V63.9929H40.0125C40.5687 63.9929 40.9506 63.9873 41.1641 63.9817C41.3719 63.9705 41.591 63.9199 41.8101 63.8244C42.0011 63.7402 42.1471 63.6222 42.237 63.4593C42.3213 63.2964 42.3662 63.1166 42.3662 62.9088ZM52.9212 65.5377H50.7923V61.7909H47.9049V65.5377H45.7703V57.0723H47.9049V60.1675H50.7923V57.0723H52.9212V65.5377ZM54.6739 65.5377V57.0723H60.4036V58.6901H56.7916V60.1675H60.1283V61.7909H56.7916V63.9199H60.4036V65.5377H54.6739ZM72.7787 65.5377H61.8416V57.0723H63.9706V63.9424H66.2457V57.0723H68.3746V63.9424H70.6497V57.0723H72.7787V65.5377ZM76.1603 65.5377V58.6901H73.655V57.0723H80.8003V58.6901H78.2949V65.5377H76.1603ZM89.378 61.3078C89.378 62.6785 89.0129 63.7514 88.2826 64.5378C87.5467 65.3242 86.5468 65.7175 85.2773 65.7175C83.9965 65.7175 82.9967 65.3186 82.2664 64.521C81.5418 63.7289 81.1766 62.656 81.1766 61.3078C81.1766 59.9484 81.5418 58.8699 82.2664 58.0835C82.9967 57.2914 83.9965 56.8982 85.2773 56.8982C86.5468 56.8982 87.5467 57.2914 88.2826 58.0778C89.0129 58.8643 89.378 59.9428 89.378 61.3078ZM87.1872 61.3022C87.1872 60.7966 87.1367 60.3697 87.0299 60.0158C86.9288 59.6563 86.7884 59.3698 86.6142 59.1395C86.4289 58.9092 86.2266 58.7407 85.9963 58.6452C85.766 58.5441 85.5301 58.4935 85.2829 58.4935C85.0189 58.4935 84.7774 58.5385 84.5695 58.634C84.3561 58.7238 84.1482 58.8924 83.9516 59.1283C83.7775 59.3474 83.637 59.6395 83.5303 60.0046C83.4236 60.3697 83.3674 60.8023 83.3674 61.3078C83.3674 61.8302 83.418 62.2572 83.5191 62.5998C83.6202 62.9481 83.7606 63.2346 83.9404 63.4649C84.1257 63.7008 84.3336 63.8694 84.5639 63.9648C84.7942 64.066 85.0301 64.1165 85.2829 64.1165C85.5301 64.1165 85.7716 64.066 86.0076 63.9536C86.2435 63.8469 86.4457 63.6784 86.6199 63.4537C86.7996 63.2065 86.94 62.92 87.0412 62.5886C87.1367 62.2628 87.1872 61.8359 87.1872 61.3022ZM97.158 59.7406C97.158 60.1338 97.0963 60.5102 96.9727 60.8697C96.8491 61.2236 96.6693 61.5213 96.4334 61.7628C96.2874 61.9089 96.1301 62.0437 95.9559 62.1729C95.7818 62.2965 95.5964 62.4032 95.3886 62.4875C95.1751 62.5774 94.9504 62.6448 94.7089 62.6953C94.4617 62.7403 94.1865 62.7683 93.8831 62.7683H92.7709V65.5377H90.6363V57.0723H93.9281C94.4168 57.0723 94.8381 57.1173 95.192 57.2015C95.5515 57.2914 95.8717 57.4318 96.1582 57.6285C96.4783 57.8419 96.7255 58.1228 96.8997 58.4767C97.0738 58.8306 97.158 59.2519 97.158 59.7406ZM94.9729 59.7968C94.9729 59.5552 94.9167 59.353 94.7988 59.1788C94.6864 59.0103 94.5516 58.8924 94.3943 58.825C94.1921 58.7407 94.0011 58.6901 93.8157 58.6733C93.6303 58.662 93.3832 58.6564 93.0686 58.6564H92.7709V61.1842H92.9169C93.1135 61.1842 93.3045 61.1786 93.4843 61.1786C93.664 61.173 93.8157 61.1618 93.9505 61.1393C94.0629 61.1168 94.1808 61.0831 94.31 61.027C94.4336 60.9708 94.5347 60.909 94.6021 60.8416C94.7426 60.7012 94.8437 60.5551 94.8942 60.4034C94.9448 60.2574 94.9729 60.0495 94.9729 59.7968ZM104 58.6901H100.427V65.5377H98.2928V57.0723H104V58.6901Z" fill="#014430"/>
    <path d="M0 71.1437H3.06062V72.2155H2.05171V76.8563H0.982562V72.2155H0V71.1437Z" fill="#2B2A29"/>
    <path d="M6.11246 71.1437H7.18161L9.31238 76.8563H8.21688L7.78395 75.6796H5.52519L5.07343 76.8563H3.97793L6.11246 71.1437ZM6.65457 72.6583L5.91671 74.6194H7.38867L6.65457 72.6583Z" fill="#2B2A29"/>
    <path d="M11.3101 71.1437H12.3416L13.6216 75.1282L14.9204 71.1437H15.9368L16.8705 76.8563H15.854L15.2592 73.2485L14.0809 76.8563H13.151L11.9878 73.2485L11.3817 76.8563H10.3539L11.3101 71.1437Z" fill="#2B2A29"/>
    <path d="M20.9764 71C21.7594 71 22.432 71.2926 22.9942 71.8777C23.5589 72.4628 23.8412 73.1761 23.8412 74.0175C23.8412 74.8511 23.5627 75.5566 23.0055 76.134C22.4509 76.7113 21.777 77 20.9839 77C20.1532 77 19.463 76.7036 18.9134 76.1107C18.3637 75.5178 18.0889 74.8136 18.0889 73.9981C18.0889 73.4518 18.2169 72.9495 18.4729 72.4913C18.7289 72.033 19.0803 71.6706 19.527 71.4039C19.9763 71.1346 20.4594 71 20.9764 71ZM20.9651 72.0641C20.4531 72.0641 20.0227 72.2479 19.6738 72.6155C19.325 72.9832 19.1505 73.4505 19.1505 74.0175C19.1505 74.6492 19.3702 75.1489 19.8094 75.5165C20.1507 75.8039 20.5422 75.9476 20.9839 75.9476C21.4834 75.9476 21.9088 75.7612 22.2601 75.3883C22.6115 75.0155 22.7872 74.556 22.7872 74.0097C22.7872 73.466 22.6102 73.0065 22.2563 72.6311C21.9025 72.2531 21.4721 72.0641 20.9651 72.0641Z" fill="#2B2A29"/>
    <path d="M27.9133 74.3204L27.7665 74.1573L26.2079 76.8563H24.9581L27.0023 73.5515L25.1463 71.1437H26.415L27.9133 73.1864V71.1437H28.9824V73.1864L30.4808 71.1437H31.7532L29.8935 73.5515L31.9377 76.8563H30.6878L29.1293 74.1573L28.9824 74.3204V76.8563H27.9133V74.3204Z" fill="#2B2A29"/>
    <path d="M33.3293 71.1437H34.3985V73.299H36.2506V71.1437H37.316V76.8563H36.2506V74.3515H34.3985V76.8563H33.3293V71.1437Z" fill="#2B2A29"/>
    <path d="M42.4873 71.1437V76.8563H41.4333V74.5573H41.1697L40.0554 76.8563H38.9034L40.1571 74.3786C39.4292 74.1638 39.0653 73.6641 39.0653 72.8796C39.0653 72.6 39.103 72.3566 39.1783 72.1495C39.2561 71.9424 39.3652 71.7676 39.5058 71.6252C39.6488 71.4803 39.8132 71.3741 39.9989 71.3068C40.1872 71.2369 40.3365 71.1968 40.4469 71.1864C40.5574 71.1761 40.8648 71.1618 41.3693 71.1437H42.4873ZM41.4333 73.4971V72.2078H41.1434C40.8799 72.2078 40.6904 72.2246 40.5749 72.2583C40.4595 72.2893 40.3654 72.3592 40.2926 72.468C40.2198 72.5741 40.1834 72.7061 40.1834 72.8641C40.1834 73.0997 40.2562 73.2641 40.4017 73.3573C40.5473 73.4505 40.7807 73.4971 41.102 73.4971H41.4333Z" fill="#2B2A29"/>
    <path d="M51.23 71.1437V76.8563H50.1759V73.2796L48.1091 76.8563H47.1906V71.1437H48.2447V74.8369L50.3416 71.1437H51.23Z" fill="#2B2A29"/>
    <path d="M59.5247 76.8563L57.9925 72.6583L56.4339 76.8563H55.3159L57.4504 71.1437H58.5195L60.6503 76.8563H59.5247Z" fill="#2B2A29"/>
    <path d="M64.5529 71C65.336 71 66.0086 71.2926 66.5708 71.8777C67.1355 72.4628 67.4178 73.1761 67.4178 74.0175C67.4178 74.8511 67.1392 75.5566 66.5821 76.134C66.0274 76.7113 65.3536 77 64.5605 77C63.7298 77 63.0396 76.7036 62.4899 76.1107C61.9403 75.5178 61.6655 74.8136 61.6655 73.9981C61.6655 73.4518 61.7935 72.9495 62.0495 72.4913C62.3055 72.033 62.6568 71.6706 63.1036 71.4039C63.5528 71.1346 64.0359 71 64.5529 71ZM64.5417 72.0641C64.0297 72.0641 63.5993 72.2479 63.2504 72.6155C62.9015 72.9832 62.7271 73.4505 62.7271 74.0175C62.7271 74.6492 62.9467 75.1489 63.3859 75.5165C63.7272 75.8039 64.1188 75.9476 64.5605 75.9476C65.0599 75.9476 65.4853 75.7612 65.8367 75.3883C66.188 75.0155 66.3637 74.556 66.3637 74.0097C66.3637 73.466 66.1868 73.0065 65.8329 72.6311C65.479 72.2531 65.0486 72.0641 64.5417 72.0641Z" fill="#2B2A29"/>
    <path d="M69.0504 71.1437H71.7986V72.2078H70.0932V76.8563H69.0504V71.1437Z" fill="#2B2A29"/>
    <path d="M77.3012 71.1437V76.8563H76.2471V73.2796L74.1803 76.8563H73.2617V71.1437H74.3158V74.8369L76.4127 71.1437H77.3012Z" fill="#2B2A29"/>
    <path d="M84.2983 72.1495L83.5604 72.8757C83.0585 72.3294 82.4938 72.0563 81.8664 72.0563C81.3368 72.0563 80.8901 72.2427 80.5262 72.6155C80.1648 72.9883 79.9841 73.4479 79.9841 73.9942C79.9841 74.3748 80.0644 74.7126 80.225 75.0078C80.3856 75.3029 80.6128 75.5346 80.9064 75.7029C81.2 75.8712 81.5263 75.9553 81.8852 75.9553C82.1914 75.9553 82.4712 75.8971 82.7247 75.7806C82.9782 75.6615 83.2568 75.4466 83.5604 75.1359L84.2757 75.9049C83.8666 76.3165 83.4801 76.6026 83.1162 76.7631C82.7523 76.921 82.3369 77 81.8701 77C81.0093 77 80.3041 76.7191 79.7544 76.1573C79.2073 75.5929 78.9337 74.8705 78.9337 73.9903C78.9337 73.4207 79.058 72.9146 79.3064 72.4718C79.5574 72.0291 79.915 71.6731 80.3793 71.4039C80.8462 71.1346 81.3481 71 81.8852 71C82.342 71 82.7812 71.0997 83.2028 71.299C83.627 71.4984 83.9921 71.7819 84.2983 72.1495Z" fill="#2B2A29"/>
    <path d="M85.321 71.1437H88.3816V72.2155H87.3727V76.8563H86.3036V72.2155H85.321V71.1437Z" fill="#2B2A29"/>
    <path d="M93.7826 71.1437V76.8563H92.7285V73.2796L90.6617 76.8563H89.7432V71.1437H90.7973V74.8369L92.8942 71.1437H93.7826Z" fill="#2B2A29"/>
    <path d="M95.6975 71.1437H96.7629V73.1087L98.265 71.1437H99.5337L97.5987 73.6913L99.7219 76.8563H98.472L96.7629 74.3204V76.8563H95.6975V71.1437Z" fill="#2B2A29"/>
    <path d="M102.8 71.1437H103.869L106 76.8563H104.905L104.472 75.6796H102.213L101.761 76.8563H100.666L102.8 71.1437ZM103.342 72.6583L102.604 74.6194H104.076L103.342 72.6583Z" fill="#2B2A29"/>
</svg>
