<svg width="20" height="20" viewBox="0 0 20 20" fill="none" xmlns="http://www.w3.org/2000/svg">
    <path d="M15.5168 3.03686C12.4678 -0.0121193 7.53245 -0.0124507 4.48314 3.03686C1.43424 6.08572 1.43376 11.0212 4.48315 14.0705L9.42408 19.0114C9.74218 19.3295 10.2578 19.3295 10.5759 19.0114L15.5168 14.0705C18.5657 11.0216 18.5662 6.0862 15.5168 3.03686ZM14.365 12.9187L9.99996 17.2837L5.63495 12.9187C3.22825 10.512 3.22825 6.5954 5.63495 4.1887C8.04169 1.78203 11.9582 1.78196 14.365 4.1887C16.7717 6.59536 16.7717 10.512 14.365 12.9187Z" fill="#01C68B" stroke="#01C68B" stroke-width="0.5"/>
    <path d="M9.99996 4.92773C7.99609 4.92773 6.37396 6.54951 6.37396 8.55371C6.37396 10.5576 7.99581 12.1797 9.99996 12.1797C12.0039 12.1797 13.626 10.5578 13.626 8.55371C13.626 6.54986 12.0042 4.92773 9.99996 4.92773ZM11.426 9.95184C11.4193 9.95726 11.4141 9.96193 11.4113 9.96448C11.4021 9.97277 11.3912 9.98333 11.3832 9.99105L11.3831 9.99121C11.3647 10.009 11.3411 10.0317 11.3106 10.059C11.2494 10.1136 11.1601 10.1864 11.0427 10.2593C10.8087 10.4045 10.4619 10.5508 9.99996 10.5508C8.8961 10.5508 8.00288 9.65768 8.00288 8.55371C8.00288 7.44988 8.89598 6.55666 9.99996 6.55666C11.7832 6.55666 12.6497 8.70565 11.426 9.95184Z" fill="#01C68B" stroke="#01C68B" stroke-width="0.5"/>
</svg>
