<svg width="70" height="70" viewBox="0 0 70 70" fill="none" xmlns="http://www.w3.org/2000/svg">
    <g opacity="0.9">
        <path d="M68.3101 28.7435C67.8018 28.4349 67.1638 28.4948 66.7227 28.8926C65.5555 29.944 64.371 30.9119 63.1464 31.8181C63.4156 30.9345 63.6482 30.0661 63.8451 29.2164C65.9098 28.0366 67.5627 26.1047 68.6435 23.5994C69.6379 21.2941 70.1118 18.5652 69.9777 15.9153C69.9475 15.3201 69.5377 14.8266 68.9579 14.6873C68.3766 14.5483 67.7858 14.8019 67.4875 15.3205C66.6952 16.6987 65.857 18.0001 64.9579 19.2525C64.9519 18.1684 64.9048 17.1171 64.8166 16.1059C64.8163 16.0857 64.8166 16.0656 64.8151 16.0452C64.5805 12.9209 64.0045 9.78899 63.1034 6.73662C62.9427 6.19262 62.3712 5.882 61.8277 6.04237C61.2836 6.20301 60.9728 6.77408 61.1334 7.31808C61.7069 9.26112 62.1392 11.2375 62.4321 13.2221C61.3089 12.137 60.1508 11.1236 58.9329 10.1615C58.4797 9.80348 57.8509 9.7771 57.3683 10.0959C56.8862 10.4145 56.6644 11.0025 56.8157 11.5592C58.0473 16.0861 60.1061 19.9466 62.7799 22.7642C62.7136 23.6269 62.6124 24.5156 62.4761 25.4261C61.7295 24.106 60.9312 22.8449 60.0636 21.6178C59.7335 21.1514 59.1432 20.947 58.595 21.1083C58.0475 21.2696 57.6634 21.7606 57.6392 22.3303C57.5046 25.5214 57.8214 30.1783 60.0379 34.4968C59.7272 35.2832 59.3781 36.0836 58.991 36.8943C58.6581 35.4231 58.2588 33.9944 57.7831 32.5792C57.6017 32.0399 57.0969 31.6743 56.527 31.6696C56.5234 31.6696 56.5197 31.6696 56.5163 31.6696C55.9521 31.6696 55.4477 32.0251 55.2593 32.5569C53.7884 36.7097 53.3617 41.0451 54.0383 44.8296C53.5089 45.4969 52.9382 46.166 52.3281 46.8333C52.4435 45.325 52.4808 43.8373 52.4392 42.3398C52.4234 41.7704 52.047 41.2733 51.5028 41.1026C50.9602 40.9321 50.3683 41.1251 50.0309 41.5825C47.3992 45.1506 45.692 49.2071 45.1881 53.0578C42.4515 55.1177 41.0068 55.6645 39.4815 56.2412C38.2245 56.7164 36.9414 57.2027 35 58.4969C33.0586 57.2026 31.7755 56.7164 30.5185 56.2412C28.9932 55.6645 27.5483 55.1176 24.8119 53.0578C24.308 49.207 22.6008 45.1505 19.9689 41.5824C19.6314 41.1252 19.0398 40.9326 18.4972 41.1026C17.9529 41.2733 17.5766 41.7704 17.5608 42.3401C17.5192 43.8374 17.5565 45.325 17.6719 46.8333C17.0618 46.166 16.4911 45.497 15.9617 44.8296C16.6383 41.0451 16.2116 36.7097 14.7407 32.5568C14.5523 32.025 14.0481 31.6696 13.4837 31.6696C13.4803 31.6696 13.4766 31.6696 13.473 31.6696C12.9032 31.6741 12.3983 32.0397 12.2167 32.5795C11.7412 33.9944 11.3418 35.4231 11.009 36.8943C10.6221 36.0836 10.2727 35.2832 9.96213 34.4968C12.1786 30.1783 12.4954 25.5214 12.3608 22.33C12.3366 21.7606 11.9525 21.2696 11.405 21.1083C10.8569 20.9471 10.2662 21.1515 9.93642 21.6178C9.06881 22.8448 8.27051 24.1058 7.5239 25.4261C7.38759 24.5156 7.28642 23.6269 7.22011 22.7642C9.8939 19.9466 11.9527 16.0862 13.1843 11.5592C13.3356 11.0025 13.1138 10.4145 12.6317 10.0959C12.1492 9.77723 11.5204 9.80348 11.0671 10.1615C9.8492 11.1236 8.69106 12.137 7.56792 13.2221C7.86077 11.2374 8.29307 9.26112 8.8666 7.31808C9.02725 6.77408 8.71635 6.20301 8.17235 6.04237C7.62889 5.88159 7.05728 6.19248 6.89663 6.73662C5.99552 9.78913 5.41967 12.9209 5.18492 16.0452C5.18342 16.0656 5.18383 16.0857 5.18342 16.1059C5.0951 17.1171 5.04807 18.1684 5.04205 19.2525C4.14299 18.0001 3.30477 16.6986 2.51236 15.3201C2.21417 14.8019 1.62355 14.5484 1.04209 14.6873C0.462268 14.8266 0.0525234 15.3201 0.0223087 15.9155C-0.111812 18.5652 0.362053 21.2941 1.35654 23.5994C2.4373 26.1048 4.09022 28.0366 6.15494 29.2164C6.35167 30.0661 6.58437 30.9345 6.85357 31.8181C5.62912 30.9119 4.44459 29.9441 3.27757 28.8927C2.8361 28.4949 2.1979 28.4347 1.68986 28.7436C1.18277 29.0515 0.942422 29.6439 1.09158 30.2178C2.27884 34.7822 5.72304 39.7709 10.7986 40.9048C11.2322 41.6568 11.7047 42.4157 12.2159 43.1782C10.7846 42.6708 9.37219 42.0944 7.951 41.4347C7.41274 41.1852 6.78589 41.3147 6.39091 41.7579C5.99703 42.2001 5.94015 42.8364 6.24968 43.3411C8.59536 47.1665 13.0186 50.7696 17.9253 50.7696C18.166 50.7696 18.4082 50.7597 18.6512 50.7419C20.0084 52.0096 21.5487 53.2532 23.2405 54.443C26.4279 56.89 28.1383 57.5367 29.792 58.1619C30.8213 58.551 31.8234 58.9305 33.2104 59.7838C32.1485 60.5977 30.9184 61.619 29.4592 62.9246C29.0365 63.3028 29.0004 63.9519 29.3787 64.3747C29.5816 64.6015 29.8624 64.7169 30.1443 64.7169C30.3881 64.7169 30.6328 64.6306 30.8287 64.4552C32.5209 62.941 33.8734 61.8344 34.9997 61.0022C36.126 61.8344 37.4786 62.941 39.1707 64.4552C39.3666 64.6306 39.6114 64.7169 39.8551 64.7169C40.1372 64.7169 40.418 64.6013 40.6208 64.3747C40.9991 63.9519 40.963 63.3028 40.5402 62.9246C39.081 61.6188 37.851 60.5977 36.7891 59.7838C38.1761 58.9307 39.1782 58.5512 40.2075 58.1619C41.8613 57.5367 43.5717 56.8899 46.759 54.443C48.4509 53.2532 49.991 52.0095 51.3482 50.7419C51.5912 50.7597 51.8331 50.7696 52.0742 50.7696C56.9803 50.7696 61.4042 47.1662 63.7498 43.3411C64.0593 42.8364 64.0024 42.2001 63.6085 41.7579C63.2137 41.3148 62.5868 41.1848 62.0487 41.4347C60.6274 42.0943 59.215 42.6708 57.7835 43.1782C58.2947 42.4157 58.7672 41.6568 59.2009 40.9047C64.2764 39.7707 67.7206 34.782 68.9079 30.2176C69.0576 29.6437 68.8171 29.0513 68.3101 28.7435ZM64.4695 25.9752C64.4978 25.7938 64.5258 25.6125 64.5515 25.4326C64.5672 25.3221 64.5813 25.2127 64.5961 25.1028C64.6188 24.9345 64.641 24.7663 64.6613 24.5994C64.6749 24.4869 64.6874 24.3752 64.7001 24.2633C64.7186 24.1002 64.7363 23.9375 64.7525 23.7759C64.7635 23.6649 64.7739 23.5545 64.784 23.4441C64.7988 23.2824 64.8125 23.1215 64.8249 22.9614C64.8296 22.9024 64.8357 22.8423 64.84 22.7835C65.9142 21.4691 66.9041 20.1152 67.8316 18.6914C67.4969 21.4854 66.4146 24.3277 64.431 26.2295C64.4448 26.1442 64.4562 26.0602 64.4695 25.9752ZM2.16851 18.6914C3.09601 20.1153 4.08598 21.4691 5.16018 22.7835C5.16441 22.8423 5.1707 22.9023 5.17521 22.9614C5.18766 23.1215 5.20133 23.2824 5.21609 23.4441C5.22621 23.5545 5.2366 23.6649 5.24767 23.7759C5.26394 23.9375 5.28158 24.1002 5.30004 24.2633C5.31262 24.3752 5.32519 24.4869 5.33887 24.5994C5.35924 24.7663 5.38152 24.9345 5.40408 25.1028C5.41885 25.2127 5.43293 25.3221 5.44865 25.4326C5.47435 25.6125 5.50238 25.7938 5.53068 25.9752C5.54394 26.0602 5.55529 26.1442 5.5691 26.2296C3.58559 24.3279 2.5032 21.4855 2.16851 18.6914ZM10.3052 24.7662C10.1922 27.2381 9.73326 29.5918 8.95985 31.6735C8.93592 31.5979 8.91268 31.5225 8.88916 31.4472C8.84377 31.3013 8.79866 31.1557 8.75532 31.0108C8.72346 30.9041 8.69297 30.7981 8.66221 30.692C8.62174 30.5522 8.58155 30.4126 8.54299 30.2737C8.51264 30.1644 8.48338 30.0555 8.45426 29.9468C8.41831 29.8129 8.3829 29.6793 8.34885 29.5463C8.32042 29.4352 8.29293 29.3248 8.26586 29.2144C8.23401 29.0848 8.20284 28.9556 8.17276 28.8271C8.1595 28.7708 8.14706 28.7147 8.1342 28.6586C8.80973 27.2941 9.52805 26.0059 10.3052 24.7662ZM7.09788 19.0242C7.09925 18.9084 7.10171 18.7935 7.10403 18.6785C7.10704 18.5298 7.11032 18.3813 7.11497 18.2341C7.11866 18.1181 7.12331 18.0032 7.1281 17.8882C7.13398 17.7448 7.1404 17.6019 7.14792 17.46C7.15407 17.3436 7.16091 17.228 7.16815 17.1127C7.17677 16.9752 7.18607 16.8383 7.19632 16.7021C7.20097 16.6405 7.20603 16.5792 7.21095 16.5178C8.27051 15.378 9.35072 14.3228 10.4763 13.3293C9.60324 15.7603 8.46192 17.9232 7.09624 19.7369C7.09569 19.6516 7.09597 19.5669 7.09597 19.482C7.0961 19.3289 7.0961 19.1759 7.09788 19.0242ZM3.95829 32.1754C5.25998 33.2289 6.59626 34.2011 7.99639 35.1144C8.01813 35.1702 8.04206 35.2266 8.06421 35.2825C8.1204 35.4243 8.17768 35.5665 8.2362 35.7091C8.2794 35.8145 8.32301 35.9199 8.36758 36.0256C8.42788 36.1689 8.48995 36.3127 8.55256 36.4567C8.59809 36.5614 8.64348 36.666 8.69037 36.7711C8.75682 36.9204 8.82545 37.0703 8.89436 37.2201C8.94043 37.3203 8.98569 37.4201 9.03285 37.5206C9.10942 37.6837 9.18858 37.8474 9.26787 38.0112C9.30356 38.0849 9.33732 38.1581 9.37369 38.232C6.949 37.0234 5.09537 34.6839 3.95829 32.1754ZM13.4815 35.467C14.085 37.8321 14.3247 40.2026 14.1863 42.4229C14.1374 42.3516 14.0891 42.2803 14.0408 42.2091C13.9621 42.0929 13.8833 41.9767 13.8064 41.8607C13.7414 41.7627 13.678 41.665 13.6144 41.5672C13.5385 41.4506 13.4629 41.334 13.3891 41.2178C13.3268 41.1196 13.2658 41.0217 13.2048 40.9238C13.1329 40.8084 13.0617 40.6932 12.9917 40.578C12.9322 40.4802 12.8738 40.3825 12.8157 40.2849C12.7472 40.1697 12.6794 40.0546 12.6128 39.9396C12.5847 39.8909 12.5572 39.8424 12.5293 39.7937C12.7813 38.3006 13.0961 36.8688 13.4815 35.467ZM9.55375 44.3676C11.104 44.9924 12.6627 45.5311 14.2638 45.9962C14.302 46.0447 14.3424 46.0933 14.381 46.1417C14.4757 46.2609 14.5719 46.3801 14.6692 46.4993C14.7415 46.5879 14.814 46.6764 14.8877 46.765C14.9886 46.8864 15.0912 47.0078 15.1946 47.1292C15.268 47.2153 15.3412 47.3014 15.4158 47.3877C15.5252 47.514 15.6369 47.6401 15.749 47.7663C15.8209 47.8472 15.8919 47.928 15.9649 48.009C16.0883 48.1458 16.2145 48.2824 16.341 48.419C16.3953 48.4776 16.4475 48.5363 16.5023 48.5949C13.8259 48.1368 11.3702 46.4355 9.55375 44.3676ZM22.1802 51.0785C22.0667 50.9875 21.9531 50.8963 21.8416 50.8048C21.7502 50.7299 21.6604 50.6547 21.5705 50.5795C21.4605 50.4878 21.351 50.3959 21.2433 50.3039C21.1551 50.2286 21.0683 50.1531 20.9816 50.0776C20.8751 49.9849 20.7693 49.8922 20.665 49.7993C20.5803 49.7238 20.4967 49.6483 20.4134 49.5727C20.3103 49.4791 20.2081 49.3854 20.1072 49.2915C20.0653 49.2527 20.0242 49.2137 19.9827 49.1748C19.7803 47.6658 19.6586 46.1968 19.6155 44.7354C20.897 46.8378 21.8394 49.055 22.3823 51.2402C22.3145 51.1863 22.2475 51.1324 22.1802 51.0785ZM50.0173 49.1748C49.9758 49.2137 49.9347 49.2527 49.8928 49.2915C49.7919 49.3854 49.6897 49.4791 49.5866 49.5727C49.5033 49.6483 49.4197 49.7238 49.335 49.7993C49.2307 49.8922 49.1249 49.9849 49.0184 50.0776C48.9316 50.1531 48.8448 50.2286 48.7567 50.3039C48.6488 50.396 48.5393 50.4878 48.4296 50.5795C48.3396 50.6547 48.2498 50.7299 48.1584 50.8048C48.0469 50.8963 47.9333 50.9875 47.8198 51.0785C47.7527 51.1324 47.6857 51.1863 47.6179 51.24C48.1609 49.0548 49.1033 46.8377 50.3846 44.7352C50.3416 46.1966 50.2197 47.6658 50.0173 49.1748ZM56.5185 35.467C56.9039 36.8686 57.2188 38.3006 57.4707 39.7937C57.4428 39.8424 57.4153 39.8909 57.3872 39.9396C57.3206 40.0544 57.2528 40.1697 57.1843 40.2849C57.1263 40.3825 57.0678 40.4802 57.0083 40.578C56.9385 40.693 56.8671 40.8084 56.7952 40.9238C56.7342 41.0217 56.6732 41.1196 56.6109 41.2178C56.5369 41.3341 56.4613 41.4507 56.3856 41.5672C56.322 41.665 56.2586 41.7629 56.1936 41.8607C56.1167 41.9767 56.0381 42.0929 55.9592 42.2091C55.9109 42.2803 55.8626 42.3516 55.8137 42.4229C55.6753 40.2028 55.915 37.8321 56.5185 35.467ZM60.4464 44.3676C58.6297 46.4356 56.1744 48.1369 53.4977 48.5949C53.5587 48.5297 53.6169 48.4644 53.6773 48.3992C53.7963 48.2705 53.9152 48.1418 54.0316 48.0131C54.1088 47.9275 54.184 47.8419 54.26 47.7562C54.3683 47.6342 54.4762 47.5124 54.5819 47.3904C54.6584 47.3021 54.7335 47.2138 54.8087 47.1255C54.9105 47.0059 55.0116 46.8864 55.1111 46.7667C55.1856 46.6772 55.2589 46.5876 55.332 46.4981C55.4288 46.3794 55.5244 46.2607 55.6189 46.1421C55.6576 46.0934 55.6982 46.0449 55.7365 45.9962C57.3373 45.5311 58.896 44.9923 60.4464 44.3676ZM59.5237 13.3293C60.6491 14.3228 61.7295 15.378 62.7891 16.5178C62.794 16.5792 62.7992 16.6405 62.8037 16.7021C62.8138 16.8383 62.8232 16.9753 62.8318 17.1128C62.8391 17.2278 62.8459 17.3432 62.8521 17.4593C62.8596 17.6016 62.866 17.7449 62.8719 17.8887C62.8766 18.0034 62.8812 18.1183 62.8849 18.2339C62.8895 18.3812 62.8928 18.5298 62.8958 18.6785C62.8982 18.7935 62.9008 18.9084 62.9021 19.0242C62.9039 19.1759 62.9039 19.3289 62.904 19.482C62.904 19.5669 62.9043 19.6516 62.9038 19.7369C61.5381 17.9234 60.3965 15.76 59.5237 13.3293ZM59.6949 24.7662C60.4721 26.0059 61.1903 27.2942 61.8657 28.6583C61.8528 28.7145 61.8404 28.7705 61.8271 28.8269C61.797 28.9555 61.7659 29.0847 61.734 29.2142C61.7069 29.3245 61.6793 29.435 61.651 29.546C61.617 29.679 61.5816 29.8127 61.5456 29.9466C61.5165 30.0554 61.4872 30.1641 61.4569 30.2735C61.4183 30.4122 61.3781 30.5518 61.3377 30.6917C61.3069 30.7979 61.2764 30.9039 61.2445 31.0105C61.2012 31.1554 61.1561 31.3012 61.1107 31.4469C61.0873 31.5223 61.0641 31.5976 61.04 31.6732C60.2667 29.5918 59.8076 27.2379 59.6949 24.7662ZM60.6263 38.2321C60.6625 38.1583 60.6964 38.085 60.7321 38.0113C60.8114 37.8475 60.8907 37.6839 60.9672 37.5208C61.0143 37.4204 61.0596 37.3205 61.1056 37.2202C61.1746 37.0703 61.2432 36.9204 61.3096 36.7713C61.3564 36.6661 61.4018 36.5615 61.4474 36.4568C61.5101 36.3129 61.5721 36.169 61.6324 36.0257C61.677 35.9199 61.7206 35.8145 61.7638 35.7092C61.8223 35.5666 61.8797 35.4245 61.9359 35.2827C61.9581 35.2268 61.982 35.1703 62.0037 35.1145C63.4039 34.2012 64.7402 33.2292 66.0418 32.1755C64.9046 34.684 63.051 37.0234 60.6263 38.2321Z" fill="#E33100"/>
        <path d="M33.8977 28.5157V32.0613H21.5897V29.2609L27.5066 23.728C28.0787 23.186 28.4626 22.7268 28.6583 22.3504C28.8541 21.9589 28.9519 21.5675 28.9519 21.1761C28.9519 20.6642 28.7788 20.2652 28.4325 19.9791C28.0862 19.6931 27.5819 19.5501 26.9194 19.5501C26.3323 19.5501 25.7903 19.6856 25.2934 19.9566C24.8116 20.2125 24.4127 20.5889 24.0965 21.0857L20.7767 19.2339C21.394 18.2101 22.2597 17.4046 23.3738 16.8175C24.4879 16.2303 25.8053 15.9367 27.3259 15.9367C28.5304 15.9367 29.5918 16.1324 30.5102 16.5239C31.4436 16.9153 32.1663 17.4799 32.6782 18.2176C33.2051 18.9403 33.4686 19.7834 33.4686 20.747C33.4686 21.6051 33.2804 22.4181 32.904 23.186C32.5427 23.9388 31.8351 24.7969 30.7812 25.7605L27.8002 28.5157H33.8977Z" fill="#E33100"/>
        <path d="M42.1555 32.3774C40.8005 32.3774 39.596 32.0537 38.5421 31.4063C37.4882 30.759 36.6602 29.818 36.0579 28.5834C35.4708 27.3338 35.1772 25.8584 35.1772 24.1571C35.1772 22.4558 35.4708 20.9879 36.0579 19.7533C36.6602 18.5037 37.4882 17.5552 38.5421 16.9078C39.596 16.2604 40.8005 15.9367 42.1555 15.9367C43.4954 15.9367 44.6923 16.2604 45.7462 16.9078C46.8001 17.5552 47.6206 18.5037 48.2078 19.7533C48.81 20.9879 49.1112 22.4558 49.1112 24.1571C49.1112 25.8584 48.81 27.3338 48.2078 28.5834C47.6206 29.818 46.8001 30.759 45.7462 31.4063C44.6923 32.0537 43.4954 32.3774 42.1555 32.3774ZM42.1555 28.7189C42.9082 28.7189 43.5029 28.3576 43.9396 27.6349C44.3912 26.8972 44.6171 25.7379 44.6171 24.1571C44.6171 22.5762 44.3912 21.4245 43.9396 20.7018C43.5029 19.9641 42.9082 19.5952 42.1555 19.5952C41.3876 19.5952 40.7779 19.9641 40.3262 20.7018C39.8896 21.4245 39.6713 22.5762 39.6713 24.1571C39.6713 25.7379 39.8896 26.8972 40.3262 27.6349C40.7779 28.3576 41.3876 28.7189 42.1555 28.7189Z" fill="#E33100"/>
    </g>
</svg>
