<svg width="101" height="100" viewBox="0 0 101 100" fill="none" xmlns="http://www.w3.org/2000/svg">
    <path d="M67.1006 10H26.1871V43.3557C26.1314 43.3667 26.0764 43.3765 26.0207 43.3881C21.7477 44.2822 18.1817 47.7167 17.148 51.9354C16.2556 55.5774 17.074 59.3024 19.3928 62.157C21.6235 64.9011 21.4847 68.8739 21.4895 68.9062C21.4895 72.7832 18.3285 75.9375 14.4432 75.9375H12.0944V90H87.2554V30.4468L67.1006 10ZM68.4652 18.0688L79.302 29.0625H68.4652V18.0688ZM23.0419 59.2041C21.6351 57.4731 21.1629 55.2875 21.711 53.0487C22.3245 50.5457 24.4439 48.5071 26.9847 47.9761C31.6181 47.0062 35.5822 50.5011 35.5822 54.8438C35.5822 56.2683 35.1498 57.6379 34.332 58.8049C30.5464 64.2029 30.9091 68.7628 30.8847 68.9062C30.8847 71.5424 31.7618 73.9777 33.2396 75.9375H23.8322C25.31 73.9777 26.1871 71.5424 26.1871 68.9062C26.159 68.7238 26.5345 63.5028 23.0419 59.2041ZM40.2798 85.3125H16.792V80.625H40.2798V85.3125ZM44.9774 85.3125V75.9375H42.6286C38.7433 75.9375 35.5822 72.7832 35.5822 68.9062C35.6244 68.6682 35.2122 65.7257 38.1806 61.4923C39.5538 59.5337 40.2798 57.2345 40.2798 54.8438C40.2798 49.1626 36.2483 44.4513 30.8847 43.3649V14.6875H63.7676V33.75H82.5579V85.3125H44.9774Z" fill="#E33100"/>
    <path d="M63.7676 52.5C55.9971 52.5 49.6749 58.8086 49.6749 66.5625C49.6749 74.3164 55.9971 80.625 63.7676 80.625C71.5382 80.625 77.8603 74.3164 77.8603 66.5625C77.8603 58.8086 71.5382 52.5 63.7676 52.5ZM63.7676 75.9375C58.5868 75.9375 54.3725 71.7322 54.3725 66.5625C54.3725 61.3928 58.5868 57.1875 63.7676 57.1875C68.9484 57.1875 73.1627 61.3928 73.1627 66.5625C73.1627 71.7322 68.9484 75.9375 63.7676 75.9375Z" fill="#E33100"/>
    <path d="M35.5822 24.375H59.0701V29.0625H35.5822V24.375Z" fill="#E33100"/>
    <path d="M35.5822 33.75H59.0701V38.4375H35.5822V33.75Z" fill="#E33100"/>
    <path d="M44.9774 43.125H77.8603V47.8125H44.9774V43.125Z" fill="#E33100"/>
</svg>
